<svg xmlns="http://www.w3.org/2000/svg" xmlns:xlink="http://www.w3.org/1999/xlink" width="463.9" height="379.3">
  <defs>
    <clipPath id="a" clipPathUnits="userSpaceOnUse">
      <path fill="#ff0" stroke="#000" d="m297 363.7 62.7-5.2 6.6 53.8-68 4.2z"/>
    </clipPath>
  </defs>
  <g stroke="#000" color="#000" font-family="Sans" font-weight="400">
    <path fill="#d3a034" d="M431.4 201.3c-.8 6.2-3 12.1-6.2 17.3L430 326H432.4l4.8-108.3c-3-5-5-10.6-5.8-16.5zm-76 20.3c2.4 5.8 3.5 12 3.3 18.1l57.8 90.6 2-1.1-49.8-96.1a42.8 42.8 0 0 1-13.3-11.5zm152 .1c-3.9 5-8.8 9.1-14.4 12l-49.4 95.1 2.2 1.2 58.4-91.3c-.1-5.8 1-11.6 3.2-17zm-207.6 55.6c4.8 3.7 8.7 8.3 11.5 13.5l95.5 49.5 1.3-2-90.5-57.7c-6 .2-12-1-17.8-3.3zm263.2 0a42.7 42.7 0 0 1-18.3 3.2l-90 57.5 1.4 2.2 95.5-49.6c2.8-5.1 6.7-9.7 11.4-13.3zm2.8 69.5-106 4.8.1 2.6 107 4.8c5-3 10.6-5 16.5-5.7-6.3-.8-12.3-3-17.6-6.5zm-268.9.1a42.6 42.6 0 0 1-17.4 6.4c5.8.7 11.3 2.7 16.3 5.6l107.2-4.8c0-.8 0-1.6.2-2.4l-106.3-4.8zm108.7 19.5-94 48.7c-2.8 5.5-6.8 10.4-11.9 14.2A42.7 42.7 0 0 1 317 426l89.8-57.4-1.1-2.2zm51.6 0-1.3 2.5 89.5 57.1c6-.2 12 1 17.6 3.3-5-3.8-9-8.6-11.8-14l-94-48.8zm-42 11.4-56.5 88.7v1.6a99 99 0 0 1 22.2-18.4l36.6-70.5-2.2-1.4zm32 .4-2.4 1.4 36 69.4a98.9 98.9 0 0 1 23.4 19v-.5l-57-89.3z" overflow="visible" style="text-indent:0;text-align:start;line-height:normal;text-transform:none;block-progression:tb;marker:none;-inkscape-font-specification:Sans" transform="translate(-200 -201)"/>
    <path fill="#e2c377" d="m443.6 226-9.9 100.2 1.8.1 15.6-94.3a42.3 42.3 0 0 1-7.5-6zm-25 .5a42.4 42.4 0 0 1-7.4 5.8l15.6 94.1 1.7-.2-9.8-99.7zm39.8 9-21.2 91.2c.6 0 1.2.2 1.8.4l27-89.4a43 43 0 0 1-7.6-2.1zm-54.6.3a42.7 42.7 0 0 1-7.6 2l27.1 89.4a29 29 0 0 1 1.7-.4l-21.2-91zm-25.3 1.2 41.5 91.5 1.6-.7-33.6-89.4c-3.3 0-6.4-.6-9.5-1.4zm105 .2c-3 .8-6.2 1.2-9.4 1.2l-33.5 89.2 1.7.6 41.3-91zm22 11.8L447 330.7l1.6 1L509 258c-1.5-2.8-2.7-5.9-3.5-9zm-148.4.8c-.9 3-2 6-3.6 8.7l60.4 73.6 1.4-1-58.2-81.4zm156.6 15L450 333l1.4 1.3 67.9-63.6a43.2 43.2 0 0 1-5.6-5.7zm-164.8.4a42.2 42.2 0 0 1-5.6 5.6l68 63.6 1.3-1.1-63.7-68zm177 10-73.3 60.2 1.3 1.5 81-58c-3.1-1-6.1-2.1-9-3.7zm-189.3.1a42.3 42.3 0 0 1-8.7 3.6l81.1 58.2 1.1-1.4-73.5-60.4zm211.1 25-90.9 41.1.8 1.8 88.7-33.4c.1-3.3.6-6.5 1.4-9.6zm-232.5 0c.8 3 1.2 6.2 1.3 9.4l89 33.5c.1-.6.4-1.1.7-1.6l-91-41.3zM546.9 318l-88.6 27 .5 1.7 90-21a43 43 0 0 1-2-7.7zm-231 0a43 43 0 0 1-1.9 7.7l90.2 21 .5-1.7-88.7-27zm236.5 15-93.1 15.4.3 2 98.5-9.8a42.3 42.3 0 0 1-5.7-7.6zm-242 .1a42.6 42.6 0 0 1-5.6 7.5l98.5 9.7.4-1.8-93.2-15.4zm149.4 22.7-.1 2 93 15.3c1.7-2.7 3.7-5.3 6-7.6l-98.9-9.7zm-56.8 0-98.8 9.8c2.2 2.2 4.2 4.7 6 7.5l93-15.4-.2-1.8zm56.4 3.7-.4 2 88 26.7a43 43 0 0 1 2-7.8l-89.6-20.9zm-56 .1-89.6 21a43 43 0 0 1 2 7.5l88-26.7-.4-1.8zm55 3.6c-.1.7-.4 1.3-.6 1.9l89.7 40.7c-.7-3-1.1-6.3-1.2-9.5l-87.8-33zm-54 .1-87.9 33c0 3.2-.5 6.3-1.2 9.4l89.7-40.7-.7-1.7zm3.2 6.8-80.2 57.5c3 .8 6 2 8.9 3.5l72.4-59.5-1.1-1.5zm47.6 0a29 29 0 0 1-1.2 1.7l72.3 59.4c3-1.5 6-2.8 9-3.6l-80.1-57.4zm-45.3 3L343 435.5a43.3 43.3 0 0 1 5.6 5.6l62.5-66.7a28 28 0 0 1-1.3-1.4zm42.9.3-1.4 1.4 62.5 66.7a43 43 0 0 1 5.7-5.6l-66.8-62.6zm-40.3 2.4-59.2 72c1.6 2.8 2.8 5.7 3.7 8.7l57-79.5-1.5-1.2zm37.5.3c-.5.5-1 1-1.6 1.3l57.3 79.9c.8-3.1 2-6 3.6-9L450 376zm-31.1 4-29.6 65 8.4-3.5 23-60.8-.4-.2-1.4-.6zm24.6.3-2 .8 22.7 60c2.9 1.1 5.7 2.3 8.5 3.6l-29.2-64.4zm-21 1L405 439.3c2-.6 4.2-1.2 6.3-1.6l13-55.7-1.8-.5zm17.3.4-2 .5 13 55.2 6.4 1.6-17.4-57.3zm-13.5.7-9 54.1 5.6-.6 5.3-53.2a29 29 0 0 1-2-.3zm9.7.2-2 .2 5.3 53 5.6.7-8.9-54zm-6.2.2-2.4 52.8a99.6 99.6 0 0 1 7.5 0l-2.4-52.7h-2.7z" overflow="visible" style="text-indent:0;text-align:start;line-height:normal;text-transform:none;block-progression:tb;marker:none;-inkscape-font-specification:Sans" transform="translate(-200 -201)"/>
  </g>
  <g stroke="#000" color="#000">
    <path fill="#d3a034" d="M891 85.6a49 49 0 1 0-38.5 90.2 49 49 0 0 0 38.6-90.2z" overflow="visible" style="marker:none" transform="translate(-640.3 22.7)"/>
    <path fill="#e2c377" d="M872 88.2a42.5 42.5 0 1 0-.3 85 42.5 42.5 0 0 0 .3-85z" overflow="visible" style="marker:none" transform="translate(-640.3 22.7)"/>
  </g>
  <path fill="#fff" stroke="#000" d="M40.1 207c9.6-66.5 12.4-134.2 90.4-162-95 5.6-105.9 95.3-113.4 162z"/>
  <path fill="#fbfbfb" d="M102.6 52c.5.1.7 1 .2 1.2-7.5 4.3-15 9.7-22 17.2-27.9 30-38.3 78-43.4 136.6 0 .4-.4 0-.7 0H21.2c-.3 0-.6.4-.6 0 6.2-51.3 15.5-91.5 28.3-112.4 12.9-21 30.6-33.3 46.5-40.1 2.4-1 4.7-1.7 6.9-2.5h.3z"/>
  <path fill="#f7f7f7" d="M74.3 71.9C48.6 102.2 38 152.2 33 207h-8.3c6.1-49.1 16-91 27.8-110.4A95.7 95.7 0 0 1 74.3 72z"/>
  <path d="m239.7 398.2-7.1 4.8c-52 36.8-53.4 99.3-59.4 146h-1.3c6-46.6 7.4-109.2 59.1-146.4 2.8-1.7 5.8-3 8.7-4.4z" color="#000" font-family="Sans" font-weight="400" overflow="visible" style="text-indent:0;text-align:start;line-height:normal;text-transform:none;block-progression:tb;marker:none;-inkscape-font-specification:Sans" transform="translate(-143.6 -342.7)"/>
  <path fill="#e2c377" stroke="#000" d="M167.5 556.1c-3.7-2.9-8.8-2.2-13.1-3.7-7.4-2.7-10.4-7.8-9.8-12.2a6 6 0 0 1 6.1-4.9 5 5 0 0 1 2.8 8.9c5.3 4.6 10.6 3.6 15 .7.5-1.3 2-3.3 5-3.5 4.2 1.4 4 3.2 4.5 4.3 3.6 2.9 8.7 2.2 13 3.8 7.4 2.6 10.4 7.7 9.8 12.1a6 6 0 0 1-6.1 4.9 5 5 0 0 1-2.8-8.8c-5.3-4.7-10.6-3.7-15-.7-.5 1.2-2 3.2-5 3.4-4.1-1.4-3.9-3.2-4.4-4.3z" color="#000" overflow="visible" style="marker:none" transform="translate(-143.6 -342.7)"/>
  <path fill="#d3a034" stroke="#000" d="M104.3 274.8a14 14 0 0 1-8.3 2.6c2-1.6 3.5-3.3 4.5-5.1z"/>
  <path fill="#d3a034" stroke="#000" d="M85.3 266.7c-7 2.3-9.8-.6-12.5-3.7-16-6-32-15.9-32-15.9-12.5 3.7-17.6 2.7-24.1-3.6 0 0 7.2-7 7.8-13.2a38 38 0 0 1 4-9.8c-.6-.8-2.3.9-4.4 1.1-1.6.3-1.8-3-3.5-3.7-1.2-.5-4 .7-4 .7-.9-3 .1-5.2 2-6.6a8.2 8.2 0 0 1 5.2-1.9c2.5 0 4.9.7 6.3 2.3 5-3.2 8.9 1.5 9.8 4 1.3.4 4 3.5 4.6 6.3 2.8.5 4.4 3.9 7.5 3.8 5.6 0 9.4-1.4 12.8-1.6 8.1-.6 22.4.8 36.6 5.1 12.7 4.8 24 18 24 18l10.7 19s-5.5 2.7-12.8 4.8l-10.6-1.4s1.4 2.7 1.5 4.2c0 1.8 0 3.5-.8 5.3-1.2 3-4.5 4.1-4.5 4.1s.9-2.6.8-4c0-1.2-.5-2.4-1.2-3.5-.5-.8-2.1-2-2.1-2s.4 2.9-1.6 5c-1.7 1.8-4.9 1.7-4.9 1.7 3-2.3 3.2-6.1 0-7-3.2-.8-7.5.1-10.4-1.5-1.8-1-3.9-3.3-4.2-6z"/>
  <path fill="#d3a034" d="M42.1 237.6s-.2 3 .7 6c1.1 4 3.3 4.2 4.5 6.7.7 1.3 1.2 4.4 1.2 4.4s1.9-1.7 2.4-3c.7-1.7.8-3.6.8-3.6s.6 3.2 1.9 5.6c.7 1.5 2.6 2.3 3.3 3.9.4 1.2.5 4.2.5 4.2s2-3 2.4-4.7c.6-2.3.8-6.4.8-6.4s1.5 4 1.9 6.5c.4 2.5-.5 7.6-.5 7.6s2.9-1.5 4-3c1.3-1.7 2.7-6.5 2.7-6.5s-.2 6 .5 9c.5 2 2.6 5.6 2.6 5.6s0-4.3.8-6.3c.7-1.8 3.2-4.7 3.2-4.7"/>
  <path d="M238.2 415.5h-.1c.5 1.2 1 2.8.2 3.7-.9.8-.7.7-1.5 1.2.8 0 1.5 0 2-.4.7-.6 1-1.5 1-2.4-.3-1.1-1.2-2.1-1.6-2.1zm4.7 6.2h-.1c.5 1.2 1 2.8.2 3.7l-1.4 1.3c.8 0 1.4 0 1.9-.5.6-.7 1-1.4 1-2.4-.2-1-1.2-2.2-1.6-2.1zm-.7 16.2c-1.3 1.4-.9 5.1-.4 7a8 8 0 0 0 2.3 4c.9.9 1.7 1.5 2.3 2.6a13.7 13.7 0 0 1 1 4.4l.3 1 .6-.7 1-1.1c.6-.7 1.2-1.4 1.5-2.2.4-.8.3-1 .4-1.6a19 19 0 0 0 1.4 3.7c.4.9 1.2 1.5 1.8 2a5 5 0 0 1 1.5 1.8c.2.5.3 1.5.4 2.4v3.2l1-1.3 1-1.7 1.5-3c.3-1.2.4-2.6.5-3.9.5 1.4 1 2.4 1.2 3.8.2 1.2 0 3-.1 4.7a40 40 0 0 1-.4 2.8l-.2 1 .9-.5 1.6-1c.9-.5 2-1.3 2.5-2a16 16 0 0 0 1.9-3.9v.4c0 1.8.1 4 .5 5.6.3 1.1 1 2.6 1.5 3.7a43 43 0 0 0 1.2 2.1l1 1.6V468.6c.1-1.4.3-3 .6-3.8.3-.8 1.1-2 1.8-2.9l1.4-1.6c2.5-2.6 4.3-5.1 4.3-5.1s-2.5 1.9-5.1 4.4c-.6.5-.7.8-1.4 1.7-.7 1-1.5 2.1-2 3.1a16 16 0 0 0-.6 4.1v.7l-.3-.5-1.5-3.5a68 68 0 0 1-.4-8.7V452l-1 4.1v.2a46 46 0 0 1-2.6 6.2c-.5.6-1.5 1.4-2.3 1.9l-.7.4.2-1.8c.2-1.6.4-3.6.2-5-.6-3.5-2.4-8-3.3-11 .5 4 .5 7.1-.4 11-.2.7-.8 1.8-1.3 2.8l-.2.3c0-1-.2-2-.5-2.7-.3-1-1-1.6-1.7-2.2a6.8 6.8 0 0 1-1.6-1.8c-1.8-3.5-2.2-8.5-3-12.8.2 3.6.8 7.3-.6 10.8-.2.5-.8 1.3-1.3 2-.2 0-.2 0-.3.2l-.1-.7c-.3-1-.5-2.1-1-3-.6-1.2-1.5-2-2.4-2.8a7 7 0 0 1-2-3.6c-.8-3.2-.6-6.7-.6-6.7zm49.3 19.4c-2.8.8-5.4 2.8-6.6 5.3-.8 1.7-1 3.6-.5 5.6l1-.3c-.5-1.8-.3-3.4.4-4.9.7-1.5 3.6-4.5 5.7-5.8zm4 4.4c-4.3 1.7-5 4.2-4.5 5.9.5 1.7 2 3 4 3.6 1.9.5 4.3.5 6.3 1 1 .3 2 .7 2.6 1.3.7.6 1.2 1.4 1.5 2.6l1-.2c-.3-1.4-1-2.4-1.8-3.2a7.3 7.3 0 0 0-3-1.4c-2.2-.6-4.7-.6-6.4-1a4.6 4.6 0 0 1-3.2-3c-.4-1.3.2-2.5 2-4l1.6-1.6z" color="#000" font-family="Sans" font-weight="400" overflow="visible" style="text-indent:0;text-align:start;line-height:normal;text-transform:none;block-progression:tb;marker:none;-inkscape-font-specification:Sans" transform="translate(-199.5 -201)"/>
  <path d="M217 196.1c-.8 0-1.6 0-2.1-.5-.7-.7-.9-1.2-.7-2.1.2-1.3 1-1.7 1.3-1.3l-.3.4a2 2 0 0 0-.2.8c0 .6.3 1.4.8 1.8.9.7.5.2 1.2 1z" color="#000" font-family="Sans" font-weight="400" overflow="visible" style="text-indent:0;text-align:start;line-height:normal;text-transform:none;block-progression:tb;marker:none;-inkscape-font-specification:Sans" transform="matrix(-.9 .42 .42 .9 142.6 -53.3)"/>
  <g clip-path="url(#a)" transform="matrix(-1.04 -.1 -.1 1.04 399 -117.3)">
    <path fill="#e6e6e6" stroke="#000" d="M316.1 336.1h18v47.2h-18z"/>
    <path fill="#ccc" stroke="#000" d="M320 334.7a1.5 1.5 0 0 0-1.3 1.4v47.2a1.5 1.5 0 0 0 1.4 1.4h10a1.5 1.5 0 0 0 1.6-1.4V336a1.5 1.5 0 0 0-1.5-1.4h-10a1.5 1.5 0 0 0-.2 0z"/>
    <path fill="#ed2a49" d="M328 336a2.8 2.8 0 1 1-5.6 0 2.8 2.8 0 0 1 5.5 0z"/>
    <path fill="#e2c377" stroke="#000" stroke-width=".9900000000000001" d="m335 387.5 1.8-2.4-1.8-2.5h-19.7l-1.8 2.5 1.8 2.4c3.2-.1 6 .5 8 3.7a3.6 3.6 0 0 0 .4 6.5 2 2 0 0 0-.6 1.5 2 2 0 1 0 4 0 2 2 0 0 0-.7-1.5 3.6 3.6 0 0 0 .5-6.4c1.2-2.5 4.2-3.6 8-3.8z"/>
  </g>
  <g stroke="#000" stroke-width="1.1">
    <path fill="#fff6d5" stroke-width="1" d="m28.2 220.5-4.4 1.5c-1.8 9.8 13.3 8.5 13.5 1.9-4.2 1.7-6.3 1.5-9.1-3.4zm-3 8.6-4 2.5c.2 3.2 1.8 4.8 3.8 5.4l-3 2.3c1.3 9.3 14 4 12.1-2-3 2.5-4.8 3-8.3-.1 4.3.7 9.9-2.7 9-6.9-3.7 2.6-5.8 3-9.6-1.2z" transform="matrix(1 0 0 1 0 .2)"/>
    <path fill="#d3a034" d="M264.2 244.4s-1 1.3-1 2.3c-.2 1 2.3 1.7 3 2.6.7 1-.5 2.3.7 2.5 2.2.3 4.5 0 6.5-.8 2.6-1.1 5.2-2.5 6.5-5.4.5-1.2.4-2.6 0-3.8a6 6 0 0 0-2.4-3.3c-1.2-.7-3.7-.7-3.7-.7l-3.1 3.3z" transform="matrix(-.82 .38 .4 .86 144.5 -73.1)"/>
    <path fill="#d3a034" d="M223.9 208.8c1.4 1.4 2 4.1 2.3 5.2 1 .5 2.3.5 3.2-.1 0-2.4-2-7.5-4.5-8.2-.8 1.2-1 2.2-1 3.1z" transform="matrix(-.82 .38 .4 .86 127.9 -25.8)"/>
  </g>
  <g fill="#d3a034" stroke="#000">
    <path d="M26.3 230s1.3.9 1.8 1.8c.5 1-1.6 2.5-2 3.5-.3 1.1 1.3 2 .2 2.6a12 12 0 0 1-6.3 1.5c-2.8-.1-5.7-.5-8-2.8a5.4 5.4 0 0 1-1.3-3.5 6 6 0 0 1 1-3.9c1-1.2 3.3-2 3.3-2l4 2z"/>
    <path d="M28.4 231.6c-.9 1.9-.5 4.6-.3 5.7-.9 1.3-2 1.6-3 1.4-.8-2.3-.9-8 1.2-9.6 1.2.8 1.7 1.7 2.1 2.5z"/>
  </g>
  <g fill="#d3a034" stroke="#000">
    <path d="m28.4 220.7 1.3 2.6-1.5 5.7s-2.6 1.6-4.2 1.7c-1.2 0-2.8-.4-2.8-.4s-2.3.8-3.3.8c-1.4 0-2.8-.9-3.7-1.9-.5-.5-1.3-1.8-1.3-1.8s-1.3-.6-1.8-1.1c-.5-.6-1-1.4-1-2.2 0-1.6.8-3.5 2-4.7.9-1 2.1-2 3.5-1.7.3 0 .9 1 .9 1s2.3-1.2 3.4-1c1 .2 1.3.7 2 1.5.8 1.2 1 2.5 2.5 2.4 1-.3 2.2-1.2 3.2-1.3.3 0 .6.2.8.4z"/>
    <path d="M30.3 223.6c-1.3 1.6-1.4 4.4-1.4 5.5-1 .7-2 1-3 1-.4-2.4.5-8.2 2.8-9.4 1 1 1.3 2 1.6 2.9z"/>
  </g>
  <g stroke="#000">
    <path fill="#fff6d5" d="M18 218.8c-1.5 3.8-.3 9.1 3.4 9.9-.7-3.4-.6-5.4 1.9-7z"/>
    <path fill="#d3a034" d="M22.6 222.5c-2.2-2.9-4.6-1.8-5.5-1.4-.7-1-1-2-1-3 2-1.3 7.9-.8 9.4 2.8-1 1-2 1.4-3 1.6z"/>
  </g>
  <path fill="#d3a034" stroke="#000" d="m103.2 255.7-1.7 3.1c1 4.5 1 8.3-.2 11.8 1.8.3 3.6 1 4.5 2.7 2.5-3.1 2.9-7.8 2-13.4l-4.6-4.2z"/>
  <path fill="#e2c377" stroke="#1a1a1a" d="M143.3 355.6H544v15.2H143.3z" color="#000" overflow="visible" style="marker:none" transform="translate(-98.2 8.3)"/>
  <path fill="#d3a034" stroke="#1a1a1a" d="M543.9 365.2H143.3" color="#000" overflow="visible" style="marker:none" transform="translate(-98.2 8.3)"/>
  <path d="M50.6 363.8c-.2 1.9-.7 5-1.4 5.8 2.5-.4 2.7-4 3-5.8h-1.6zm4.6 0c0 1.9-.6 5-1.3 5.8 2.5-.4 2.7-4 3-5.8h-1.6zm4.7 0c0 1.9-.6 5-1.3 5.8 2.5-.4 2.7-4 3-5.8h-1.7zm4.8 0c-.2 1.9-.7 5-1.4 5.8 2.5-.4 2.7-4 3-5.8h-1.6zm4.6 0c0 1.9-.6 5-1.3 5.8 2.5-.4 2.7-4 3-5.8h-1.7zm4.8 0c-.2 1.9-.7 5-1.4 5.8 2.5-.4 2.7-4 3-5.8H74zm4.7 0c-.2 1.9-.7 5-1.4 5.8 2.5-.4 2.7-4 3-5.8h-1.7zm4.6 0c0 1.9-.6 5-1.3 5.8 2.5-.4 2.7-4 3-5.8h-1.7zm4.8 0c-.2 1.9-.7 5-1.4 5.8 2.5-.4 2.7-4 3-5.8h-1.6zm4.6 0c0 1.9-.6 5-1.3 5.8 2.5-.4 2.7-4 3-5.8h-1.7zm4.8 0c-.2 1.9-.7 5-1.4 5.8 2.5-.4 2.7-4 3-5.8h-1.6zm4.7 0c-.2 1.9-.7 5-1.4 5.8 2.5-.4 2.7-4 3-5.8h-1.7zm4.6 0c0 1.9-.6 5-1.3 5.8 2.5-.4 2.7-4 3-5.8h-1.7zm4.8 0c-.2 1.9-.7 5-1.4 5.8 2.5-.4 2.7-4 3-5.8h-1.6zm4.6 0c0 1.9-.6 5-1.3 5.8 2.5-.4 2.7-4 3-5.8h-1.7zm4.8 0c-.2 1.9-.7 5-1.4 5.8 2.5-.4 2.7-4 3-5.8H121zm4.7 0c-.2 1.9-.7 5-1.4 5.8 2.5-.4 2.7-4 3-5.8h-1.7zm4.6 0c0 1.9-.6 5-1.3 5.8 2.5-.4 2.7-4 3-5.8h-1.7zm4.8 0c-.2 1.9-.7 5-1.4 5.8 2.5-.4 2.7-4 3-5.8h-1.6zm4.6 0c0 1.9-.6 5-1.3 5.8 2.5-.4 2.7-4 3-5.8h-1.7zm4.8 0c-.2 1.9-.7 5-1.4 5.8 2.5-.4 2.7-4 3-5.8h-1.6zm4.7 0c-.2 1.9-.7 5-1.4 5.8 2.5-.4 2.7-4 3-5.8h-1.7zm4.6 0c0 1.9-.6 5-1.3 5.8 2.5-.4 2.7-4 3-5.8h-1.7zm4.8 0c-.2 1.9-.7 5-1.4 5.8 2.5-.4 2.7-4 3-5.8h-1.6zm4.6 0c0 1.9-.6 5-1.3 5.8 2.6-.4 2.7-4 3-5.8h-1.7zm4.8 0c-.2 1.9-.7 5-1.4 5.8 2.5-.4 2.7-4 3-5.8H168zm4.7 0c-.2 1.9-.7 5-1.4 5.8 2.5-.4 2.7-4 3-5.8h-1.7zm4.6 0c0 1.9-.6 5-1.3 5.8 2.5-.4 2.7-4 3-5.8h-1.7zm4.8 0c-.2 1.9-.7 5-1.4 5.8 2.5-.4 2.7-4 3-5.8h-1.6zm4.6 0c0 1.9-.6 5-1.3 5.8 2.6-.4 2.7-4 3-5.8h-1.7zm4.8 0c-.2 1.9-.7 5-1.4 5.8 2.5-.4 2.7-4 3-5.8h-1.6zm4.7 0c-.2 1.9-.7 5-1.4 5.8 2.5-.4 2.7-4 3-5.8h-1.7zm4.6 0c0 1.9-.6 5-1.3 5.8 2.5-.4 2.7-4 3-5.8h-1.7zm4.8 0c-.2 1.9-.7 5-1.4 5.8 2.5-.4 2.7-4 3-5.8h-1.6zm4.6 0c0 1.9-.6 5-1.3 5.8 2.6-.4 2.7-4 3-5.8h-1.7zm4.8 0c-.2 1.9-.7 5-1.4 5.8 2.5-.4 2.7-4 3-5.8H215zm4.7 0c-.2 1.9-.7 5-1.4 5.8 2.5-.4 2.7-4 3-5.8h-1.7zm4.6 0c0 1.9-.6 5-1.3 5.8 2.5-.4 2.7-4 3-5.8h-1.7zm4.8 0c-.2 1.9-.7 5-1.4 5.8 2.5-.4 2.7-4 3-5.8h-1.6zm4.6 0c0 1.9-.6 5-1.3 5.8 2.6-.4 2.7-4 3-5.8h-1.7zm4.8 0c-.2 1.9-.7 5-1.4 5.8 2.5-.4 2.7-4 3-5.8h-1.6zm4.7 0c-.2 1.9-.7 5-1.4 5.8 2.5-.4 2.7-4 3-5.8h-1.7zm4 0c0 1.9-.6 5-1.3 5.8 2.5-.4 2.7-4 3-5.8h-1.7zm4.7 0c0 1.9-.6 5-1.3 5.8 2.5-.4 2.6-4 3-5.8H252zm4.8 0c-.2 1.9-.7 5-1.4 5.8 2.5-.4 2.7-4 3-5.8h-1.6zm4.6 0c0 1.9-.7 5-1.3 5.8 2.5-.4 2.6-4 3-5.8h-1.7zm4.8 0c-.2 1.9-.7 5-1.4 5.8 2.5-.4 2.7-4 3-5.8h-1.6zm4.6 0c0 1.9-.6 5-1.3 5.8 2.5-.4 2.7-4 3-5.8h-1.7zm4.7 0c0 1.9-.6 5-1.3 5.8 2.5-.4 2.6-4 3-5.8h-1.7zm4.8 0c-.2 1.9-.7 5-1.4 5.8 2.5-.4 2.7-4 3-5.8h-1.6zm4.6 0c0 1.9-.7 5-1.3 5.8 2.5-.4 2.6-4 3-5.8h-1.7zm4.8 0c-.2 1.9-.7 5-1.4 5.8 2.5-.4 2.7-4 3-5.8h-1.6zm4.6 0c0 1.9-.6 5-1.3 5.8 2.5-.4 2.7-4 3-5.8h-1.7zm4.7 0c0 1.9-.6 5-1.3 5.8 2.5-.4 2.6-4 3-5.8H299zm4.8 0c-.2 1.9-.7 5-1.4 5.8 2.5-.4 2.7-4 3-5.8h-1.6zm4.6 0c0 1.9-.7 5-1.3 5.8 2.5-.4 2.6-4 3-5.8h-1.7zm4.8 0c-.2 1.9-.7 5-1.4 5.8 2.5-.4 2.7-4 3-5.8h-1.6zm4.6 0c0 1.9-.6 5-1.3 5.8 2.5-.4 2.7-4 3-5.8h-1.7zm4.7 0c0 1.9-.6 5-1.3 5.8 2.5-.4 2.6-4 3-5.8h-1.7zm4.8 0c-.2 1.9-.7 5-1.4 5.8 2.5-.4 2.7-4 3-5.8h-1.6zm4.6 0c0 1.9-.7 5-1.3 5.8 2.5-.4 2.6-4 3-5.8h-1.7zm4.8 0c-.2 1.9-.7 5-1.4 5.8 2.5-.4 2.7-4 3-5.8h-1.6zm4.6 0c0 1.9-.6 5-1.3 5.8 2.5-.4 2.7-4 3-5.8h-1.7zm4.7 0c0 1.9-.6 5-1.3 5.8 2.5-.4 2.6-4 3-5.8H346zm4.8 0c-.2 1.9-.7 5-1.4 5.8 2.5-.4 2.7-4 3-5.8h-1.6zm4.6 0c0 1.9-.7 5-1.3 5.8 2.5-.4 2.6-4 3-5.8h-1.7zm4.8 0c-.2 1.9-.7 5-1.4 5.8 2.5-.4 2.7-4 3-5.8h-1.6zm4.6 0c0 1.9-.6 5-1.3 5.8 2.5-.4 2.7-4 3-5.8h-1.7zm4.7 0c0 1.9-.6 5-1.3 5.8 2.5-.4 2.6-4 3-5.8h-1.7zm4.8 0c-.2 1.9-.7 5-1.4 5.8 2.5-.4 2.7-4 3-5.8h-1.6zm4.6 0c0 1.9-.7 5-1.3 5.8 2.5-.4 2.6-4 3-5.8h-1.7zm4.8 0c-.2 1.9-.7 5-1.4 5.8 2.5-.4 2.7-4 3-5.8h-1.6zm4.6 0c0 1.9-.6 5-1.3 5.8 2.5-.4 2.7-4 3-5.8h-1.7zm4.7 0c0 1.9-.6 5-1.3 5.8 2.5-.4 2.6-4 3-5.8H393zm4.8 0c-.2 1.9-.7 5-1.4 5.8 2.5-.4 2.7-4 3-5.8h-1.6zm4.6 0c0 1.9-.7 5-1.3 5.8 2.5-.4 2.6-4 3-5.8h-1.7zm4.8 0c-.2 1.9-.7 5-1.4 5.8 2.5-.4 2.7-4 3-5.8h-1.6zm4.6 0c0 1.9-.6 5-1.3 5.8 2.5-.4 2.7-4 3-5.8h-1.7zm4.7 0c0 1.9-.6 5-1.3 5.8 2.5-.4 2.6-4 3-5.8h-1.7zm4.8 0c-.2 1.9-.7 5-1.4 5.8 2.5-.4 2.7-4 3-5.8h-1.6zm4.6 0c0 1.9-.7 5-1.3 5.8 2.5-.4 2.6-4 3-5.8h-1.7zm4.8 0c-.2 1.9-.7 5-1.4 5.8 2.5-.4 2.7-4 3-5.8h-1.6zm4.6 0c0 1.9-.6 5-1.3 5.8 2.5-.4 2.7-4 3-5.8h-1.7zm4.7 0c0 1.9-.6 5-1.3 5.8 2.5-.4 2.6-4 3-5.8H440z" color="#000" font-family="Sans" font-weight="400" overflow="visible" style="text-indent:0;text-align:start;line-height:normal;text-transform:none;block-progression:tb;marker:none;-inkscape-font-specification:Sans" transform="translate(0 .2)"/>
  <path fill="#d3a034" stroke="#000" d="M294.4 344.3c7.4 4.5 3 16.2-8.5 14l4.1-6z"/>
  <path fill="#fff6d5" stroke="#000" d="M255.2 359.5c-5.9-.4-6.6-2.9-3-7.2l-2.9-3.6c-12 2.7-1.6 17.7 6 10.8z"/>
  <path fill="#fff6d5" stroke="#000" d="M262 365.4c-6-.3-6.7-2.8-3-7.2l-3-3.6c-12 2.7-1.6 17.7 6 10.8z"/>
  <path fill="#fff6d5" stroke="#000" d="M269 370.8c-5.8-1.4-6-4-1.7-7.6l-2.3-4c-12.3.5-4.6 17.1 4 11.6z"/>
  <path fill="#d3a034" stroke="#000" d="M314.6 300.4c2-2.7.9-5.6.9-5.6s-1.6 1.8-3 2.8c-.7.6-2.8.6-3.5.1-1.9-1.2-2.3-3.7-2.8-6-1.2-5.5 4-8.4 5.4-11a70.4 70.4 0 0 1 9.4-14c5.6-5 6-1.2 6-1.2l-24.6-19.7-22.1 1.4-24.6-9.5c-5.8 10-20 11.7-7.4 32 2.6 2.8 3.3 4.8 6.5 5 3.3.3 4.9 2.1 13.4-2.9-8 13.7-1 30.6-8.7 30.3-1 0-2.7-1.5-2.7-1.5.6 4.5 3.7 8 8 5.6 0 2.4-1 5.2-3.7 5.3 1.5 4.3 6.5 1.6 8.4-1.6.6 2.6-.7 6-4.6 6.7 4.2 4.6 8.9 1 9.9-2.6l1 3.5c.5 2 1.4 2.4 1.8 3.4.8 1.8 1 2.7 1 4 .2 1.4-.5 1.2-1 1.9-2.4 3.2-3 7.7-4.5 10.3-.3.5-1.1 2.5-2.2 3.6a7 7 0 0 1-6 2.2c-2.3-.1-4.6-2.3-6.6-2.9a8.5 8.5 0 0 0-4.2-.5c-3 .7-5.5 2-7.6 4.3-1.4 1.6-1.9 6.2-1.9 6.2 3.9 0 5.3 1 6.3 2.2 0 2-1.6 2.8.3 5.4 4-1.7 6.4.6 8.5 3 2.9.4 5.6 1.9 6 5 0 0 1.6-1 3.6-.8 4.2.2 7.2 1.6 9.5 1.4 3-.2 6.6-.8 8.6-4.6.9-1.6 0-4.8 1-7.2 3.1 1 5.3-1 6.1-3.5.5-1.3 0-3-.7-5.3.6-1.7 0-3.4 0-3.4l1.4 1c1.2.8 2.9 0 3.8 1 .5.5.6 2 .6 2 3.2-3.2-.2-5.6-1.2-7.2-.7-1-.2-2 .5-3 .8-1.4 2.6-1.7 3.8-2.7 3.8-3.1 7.7-7.3 3.7-12.1 3.1-.5 5-1.4 6.7-4.1 0 0-2-.2-3.2-.7-1-.5-1.8-1.8-2.8-2.3-.8-.4-2.4-.3-2.4-.3-.8.2 2.9-7.5 7.6-8.3 3.8-.7 4.6 3.1 2.4 6 5-1 5.7-7.6 0-11.1z"/>
  <path d="M496 455a11.3 11.3 0 0 1 3.3 10.4c1.4-1.5.8-4.7.4-5.7-.8-2.2-2.2-4-3.8-4.6zm-2.5.4c1.4 1.4 2.5 3 3.2 4.9.5 1.7.4 3.7.1 5.5 1.5-1.6.9-4.8.5-5.8-.8-2.2-2.2-4-3.8-4.6zm-28.5 0c-.4 2-1 3.8-2.3 5.4-1 1.4-2.7 2.5-4.4 3.3 2.2.3 4.4-2 5.1-3 1.4-1.9 2-4 1.6-5.7zm33.3.3c1.3 1.3 2.5 3 3.2 4.9.5 1.7.5 3.7.2 5.5 1.4-1.6.8-4.8.4-5.9-.7-2.2-2.2-4-3.8-4.5zm-7.5 0c1.4 1.4 2.5 3 3.2 5 .6 1.6.5 3.6.2 5.4 1.4-1.5.8-4.7.4-5.8-.7-2.2-2.1-4-3.8-4.6zm9.8.1c1.3 1.4 2.5 3 3.1 5 .6 1.6.6 3.6.2 5.4 1.5-1.5.9-4.7.5-5.8-.8-2.2-2.2-4-3.8-4.6zm-12.5.4c1.3 1.4 2.5 3 3.1 5 .6 1.6.5 3.6.2 5.4 1.5-1.5.9-4.7.5-5.8-.8-2.2-2.2-4-3.8-4.6zm-3 .6c1.3 1.3 2.4 3 3 4.9.7 1.7.6 3.7.3 5.5 1.4-1.6.8-4.7.4-5.8-.7-2.2-2.1-4-3.7-4.6zm-3 1c1.4 1.4 2.5 3 3.2 5 .6 1.6.5 3.6.2 5.4 1.4-1.5.8-4.7.4-5.8-.7-2.2-2.1-4-3.7-4.6zm-15.7.2c-.2 1.9-.7 3.8-1.8 5.5-1 1.5-2.5 2.7-4.1 3.6 2.1.2 4.2-2.3 4.8-3.3 1.2-2 1.7-4.2 1-5.8zm1.1.8c.2 1.9 0 3.9-.7 5.8-.6 1.6-1.9 3.1-3.3 4.3 2.2-.3 3.7-3 4-4.2.9-2.1 1-4.5 0-6zm11.6 0c1.3 1.4 2.5 3 3.1 4.9.6 1.7.6 3.7.2 5.5 1.5-1.6.9-4.7.5-5.8-.8-2.2-2.2-4-3.8-4.6zm-7.7.5c.8 1.7 1.4 3.6 1.3 5.7 0 1.7-.8 3.6-1.7 5.2 1.9-1 2.4-4.2 2.4-5.3 0-2.4-.6-4.5-2-5.6zm5 0c1.3 1.5 2.2 3.3 2.6 5.3.4 1.7 0 3.7-.5 5.4 1.6-1.3 1.4-4.6 1.2-5.7-.5-2.3-1.7-4.2-3.2-5zm-6.9.1c.5 1.9.7 3.8.3 5.8-.3 1.8-1.4 3.4-2.6 4.9 2.1-.7 3.2-3.7 3.4-4.9.4-2.2 0-4.5-1-5.8zm4.6.3c1 1.6 1.8 3.4 2 5.4.2 1.8-.3 3.7-1 5.4 1.8-1.2 1.8-4.4 1.7-5.6-.3-2.3-1.3-4.4-2.7-5.2zm31.2 11c-1.4.2-1.7 6-2.2 8-1.2 3.8-4 7.1-5.2 11.2-1.1 3.8-1.9 8-1.6 12 .1 1.4.7 3.2 1.2 4.7l1 2.6-.3.2c-.5.3-1.6.5-2.6.7l-1.8.2h-.9l.6.8.8.8c.4.5 1 1 1.8 1 .6.2 1.2 0 1.9-.2l-1.6 1.3a9 9 0 0 1-2.4.6l-1.5.1h-1.2l.9.9s2 2 4.7 1.6c.8-.1 1.6-.5 2.2-1l.6-.3c0 .4.2.7.5 1.6.4 1.2 1 2.6 1.8 3.5.6.6 2.2 1.6 3 2 1 .3 1.8 1.6 1.8 1.6l-.5-2.4 2.7-1c-2.4.3-4.4.7-6.3-1-.6-.6-1.2-2-1.6-3-.5-1.5-.3-3.7 1.7-6.2.6-.8 1.9-3.2 3.7-4.4 2.7-1.7 5.6-2.3 5.6-2.3.2-.2-3-.1-6.2 1.8-1.5.9-3 3.6-3.7 4.5-1.3 1.5-2.2 4-3.6 4.8-.6.4-1.4.8-1.9.9-1 .1-2-.2-2.8-.7h.2a9 9 0 0 0 2.7-.7c.8-.4 1.5-1 2-1.7l1.2-1.1 1-1.5-1.6.7-1.3.4-1.9.3c-.3 0-.8-.4-1.2-.8l.8-.1c1-.2 2.1-.4 3-.9 1.1-.6 1.9-1.7 2.6-2.7.7-1 2.3-3 3.8-3.9 1.3-.8 2.6-1 4-1.3.8-.2 2.7-.5 4.2 0 2 .5 3.6 1.8 3.6 1.8l-2.7-2.6.3-2.1c-.2.4-.7.7-1.2 1-1.3.7-3.1 1-4.3 1a9 9 0 0 0-4 1.3c-1.8 1-3.9 3.2-4.5 4.2l-1.4 1.7-.8-2.3a22 22 0 0 1-1-4.5c-.3-3.9.4-7.8 1.5-11.6 1-3.8 3.9-7.1 5.1-11.1.9-2.8 1.3-8.4 1.3-8.4zm-28.7 3.1a19 19 0 0 0-4.4 5.5c-1.6 3-1.2 7.5-.6 10.9a33 33 0 0 0 5.5 12.2c2.3 3.5 4.5 7 5.6 11.8l1.2 5c.4 1.8.7 3.8.6 4.6-.2 1-1.1 2.5-2.1 4-1 1.4-2.1 2.8-2.6 4l-1 4a35 35 0 0 1-1.6 4.8c-.5 1.3-1.1 2-1.6 2.5l-.7.5-2.6 2.1s3.5-1.3 4.1-1.8c.6-.6 1.2-1.4 1.9-2.8a35 35 0 0 0 1.5-5l1-3.8c.4-1 1.5-2.5 2.5-4 1-1.4 2-2.9 2.3-4.3.2-1.2-.1-3.2-.6-5.1l-1.2-5c-1.2-5-3.5-8.6-5.8-12-2.2-3.6-4.4-7-5.3-12-.6-3.1-.6-7.7.8-10.5s3.8-5.3 3.8-5.3c-.2-.2-.5-.4-.7-.3zm-6.9 23.5h-.4c-1.4.3-2.5 2-2.3 3 1-.8 1.2-1.3 2-1.5.7-.3 1.8-.4 3 0-.3-1.2-1.3-1.6-2.3-1.5zm45 1v1c.2-.3.3-.7 0-1zm-43.9 2.4c-1 0-2 .5-3.3 1-1.3.7-2.3 2.4-3 3.6-.2.6-.6 1.3-1.4 1.7-1 .6-2.5.7-2.5.7l3.6-.4.4 1.2s.5-1.9 1-3a7.5 7.5 0 0 1 2.5-3c1-.6 3.7-1.7 3.7-1.7a4 4 0 0 0-1 0zm.8 5c-3.2 1.3-2.7 3.8-3.6 5.2-.2.7-1 1.5-1 2.1l1.5-1.4 1 .8c0-1.2 0-3 .3-4 .4-1.2 1-1.7 1.8-2.6zm32.2 8.8c-1 1-1 2.3-.6 3.3.5 1 1.8 1.6 3.1 1.6-.6-.7-1.7-1-2.2-2-.3-.7-.3-1.5.4-2.1zm-4.9 6 .5 1c.3.5.6 1.1 1.1 1.5.8.8 1.8 1.3 2.4 2 .6.6 1 1.3.9 2.7-.3 1.7-1.7 3.3-3.2 4.3-1.3 1-3.3 1.7-4.6 3-.7.6-1.2 1.4-1.4 2.3-.2 1 0 2 .8 3.2.2.4.6.6 1 .7.3.2.7.3 1.1.3.3 0 1 .4 1.3.8a7 7 0 0 1 1.2 1.5l-1.5-3.1-.9-.2c-.3 0-.6 0-.9-.2-.2 0-.4-.2-.4-.3-.7-1-.8-1.8-.7-2.5.1-.7.5-1.2 1-1.8 1.2-1 3-1.9 4.5-2.9 1.7-1.1 3.4-2.8 3.6-5a4 4 0 0 0-1-3.5c-1.2-1.2-2.8-1.3-4.8-3.9zm1 4c-.5 1.4 0 2.4-1.5 3.8-1 1.3-2.3 2.4-3.7 3.6a10.9 10.9 0 0 0-3.3 4.1c-.6 1.6-.4 3.1 0 4.6l.1.2c-.2.2-1.1 1.2-1.6 2-.6 1-.3 4.2-1.6 6.3-1.3 2.1-4.3 3-4.5 4.4 0 1.1.3 2.1.1 3-.1.6-.7 1.4-1.3 1.9-1.2.8-1.1.5-2.4 2.2 1.1-.4 2.1-.7 3-1.5.8-.6 1.5-1.4 1.7-2.4.2-1.2-.1-2.3 0-3.1.1-1.2 3-2 4.3-4 1.3-2 .9-5.2 1.5-6.3l1.3-1.5.4.9c.4.6 1 2.9 1 2.9l.6-2.3-.8-1.1-.8-1.8c-.3-1.5-.6-2.8 0-4a9.8 9.8 0 0 1 3-3.7c1.3-1.2 2.8-2.3 3.9-3.7.4-.7.8-1.4 1-2.3l-.2-1.4-.2-.7zM468.2 547l.3 1.4c0 .4-.3 1.1-.6 1.4-.5.6-1.5.7-2.3.5a28 28 0 0 0-8.6-1.5c-2.2.2-4.3 2-6.4 4.6l.6 1.8h1c-.3-1.5 2.9-5.2 4.9-5.3 2.2-.1 4.8.5 8.2 1.4 1.1.3 2.6.2 3.3-.7.7-.9.7-2.9-.4-3.6zm5.7 5.4-.3.5-.7.8c-.4.3-1.5.8-2 .8-1.7.1-3.3-.4-5 0a9 9 0 0 0-6.4 3.9c-.4.9.4 2 .4 2l1 1s-.2-.7.2-1.5c.3-1 .8-2 1.2-2.3 1.2-1.3 2-1.8 3.7-2.1 1.6-.4 3.4.2 5.3-.1 1.6-.3 3-1.3 2.6-3z" color="#000" font-family="Sans" font-weight="400" overflow="visible" style="text-indent:0;text-align:start;line-height:normal;text-transform:none;block-progression:tb;marker:none;-inkscape-font-specification:Sans" transform="translate(-199.5 -201)"/>
  <path fill="#d3a034" stroke="#000" d="M250 356c-.7-3.2-3-4-6.1-3.6-.1-5.5 8.3-2 7.7 1.6z"/>
  <path fill="#d3a034" stroke="#000" d="M259 361.6c-1.4-3-6.4-5.3-8.8-3-.4-1.5-.8-2.5.3-4 4.2-2.2 9.9 2.2 10 4 0 1.7-.5 2.4-1.5 3z"/>
  <path fill="#d3a034" stroke="#000" d="M265 367c-.6-3.4-3.9-5.5-6.2-5 1.7-7 12.3 2.3 6.3 5zM271 250.2c-1.2 7-2.2 12.5 5.1 10.6 0 0 4.7-2 11.6-3.9 2-.5 6-1.2 7.9-.4 3 1.1 5.3 4 8 5.7 2 1.2 6.4 2 8.1.7 2-1.3 2.3-4.7 2.3-4.7l-8.5-9.8-17-2.8-12 3.6zM449.5 104.2s1.6-4.3 3.6-5.2c2.9-1.3 4.7.1 5.7 3.4-2.2-1.3-4.5-2.6-4 .9.8 5.7 4 10.8 1.2 16.1-4 7.7-12.5 6.8-19.7 4.9zM407.6 106.1c-3.3-12.4 19.9-20.9 28.8-3z"/>
  <path fill="#d3a034" stroke="#000" d="M407.3 113.6c-2.3 13 21.8 24.7 35.3 8.7zM416.5 306.6c1.1-2.1 1-3.2.4-5.5 2.1 1 3.3 2.8 3 5.9zM416.7 344c7.4 4.5 3 16.2-8.5 14l4.2-6zM395.7 332.4c.4 3.1-1.2 4.6-2.7 5.8 0 0 .3-3-.3-4.7-.5-1.2-1.1-1.1-1.9-2.1-.8-1.2-1.3-1.7-1.4-3.1a37.7 37.7 0 0 1 1.6-10.5l3.2 4 1.5 10.6z"/>
  <g fill="#fff6d5" stroke="#000">
    <path d="m139.7 344.8-3 3.5c3.4 4.5 2.7 7.4-1.9 8.8 8.4 5 14.7-10.2 5-12.3zM82.5 352c-6.7.3-8.6 12.6-.1 13.4-2.9-3.8-1.8-6.6 3.7-8.1l-.4-4.7a6.9 6.9 0 0 0-3.2-.6zm17 6.4c-8.9-.2-7.7 15.1 1.5 13.2-3.9-2.8-3.6-5.7 1.2-8.8l-1.7-4.3-1-.1zm-8.2.1c-10-.3-7.5 16 1.8 13-4-2.3-4.1-5.3.3-8.8l-2-4.2zM377.6 359.1c-6-.3-6.7-2.8-3-7.1l-3-3.7c-12 2.8-1.5 17.8 6 10.8z"/>
    <path d="M384.3 365c-6-.2-6.7-2.7-3-7l-3-3.7c-12 2.7-1.5 17.7 6 10.8z"/>
    <path d="M391.3 370.5c-5.8-1.4-6-4-1.7-7.6l-2.2-4c-12.4.5-4.7 17.1 4 11.6z"/>
  </g>
  <path fill="#d3a034" stroke="#000" d="M403.5 102.8c-10.6 1.4-15.4 5.3-19.5 12a29 29 0 0 0 .6 27.1c7.3 12.2 20 19.5 31.8 26.2 11.8 6.8 22.8 13.2 28.3 21.6a34.5 34.5 0 0 1 5 28c-2 7.2-4.8 10.5-11.5 13.6-8.8 4.2-22.6 2-33.5-1.9-14.3-5-25.9-21.4-47.2-35-2.7-1.6-5.5-3-8.2-4l-1.8-1.1s-3-3.6-15.1-8c-9.3-3.2-22-4.6-29.6-5-7.7-.4-22.1 3-33.4 3-5.5-.1-8.7 0-13.9.5l-16.1 2c-2.7.2-5.6.1-8.6-.2 2.2-1 3.1-2.1 3.9-4-17.8 4.3-25.1-5.4-37-8.5-10.4-4.8-18.6-7.1-18.6-7.1l-12.2-3.4L120 200l3.4 46s-4.2 17.2-3.9 25.9c.6 14.7 3.4 19.4 3.1 26.7-.2 7.9-2.3 13.6-2.9 21.5-.3 4 0 7.3 0 7.3 0 1.5-.9 3-1.5 3.4-4.4 3.4-7.4 10.2-12.1 13a7.3 7.3 0 0 1-5 .9c-2-.4-3.5-2.3-5.5-3-1-.4-2.3-.6-3.4-.4-2.2.5-4.4 1.2-5.8 2.9-.6.8-.5 2-1.2 3-1.6 2-3.8.8-5.2 3.8-.5 1 .6 3.2.6 3.2 2.3-.2 3.4-.7 4.3 1.4 0 0-1.8 2.6-1.9 3.8 0 .7.6 2.2.6 2.2 7.8-1.2 7.5 1.3 10.2 2.4 4.4-4.9 8.2-.2 9.9 1.7 0 0 2.1 1.1 3.3 1.4 1.2.2 2.5.3 3.7 0 1-.3 1.4-.8 2.4-.9 2.7-.2 4.4 1.8 8.4-2.7l1.5-2.2c.8-1.4.7-2.5 1.4-4 1-2 3.4-2.8 4.7-4.6.6-.8-.2-1.7.5-2.6.7-1 2.8-3.5 4.8-3 2 .6.4 1.1 1.5 2.5l1.4 1.7 3.7-1.2 4.6 2s1.9-.9 2.6-2.3c1.3-2.3 1.1-7-.7-9-2.7-2.9-.1-7.5-.1-7.5 3.2.4 5.3 0 7.6-2.1 0 0-2.7-.4-3-1.8-.4-2.3 1.7-3.1 2.4-5.2.4-1.1.4-3 .4-3 1.6 2.7 3.8 2.9 6.3 2.1 0 0-2.4-1.4-2.8-4-.5-3.2 1.2-5.2 1.2-5.2.8 2.2 3.2 5.2 8 4-3-2-3.8-5.5-3.5-6.6 2 2.9 4.6 5.4 9.7 4-3.5-2.4-5.2-5-5.4-7 2.9 2.5 5.8 2.2 8.6 1.5-3.5-3.4-4.8-4.5-5-8 2.2 2.8 5 3 8.9 1.8-4.2-3-3-6-2.4-8.5.9 2.7 2.8 6.6 7.8 5.4-1.5-1.4-2.5-2.7-2.8-4.2-.6-4 1-7.7 2.8-11.3l7.2-.5c0 1.4.6 2.8 2.3 4.5.4-2.1 1-4.4 3-5.5.4 1.6 1 3.6 2.5 5 .3-2.1 1-4.3 2-5.4.3 1.7 1 3.3 2.6 4.7a13 13 0 0 1 3.5-6c0 2.1 1 3 2.3 4.5 1-4.2 2.2-5.2 3.5-6.5.7 3.5 2 4.5 3.3 5-2.3-4.5 2-8 11.5-10.4 6-1.5 13.2-1.3 19-3.7 13.4-5.6 24.7-19.1 39-19.4 7.3 0 12.3-.3 20.3 12.3 8 12.8 12.9 17.6 26 23 5.2 2.2 11.7 5.7 12.5 10.4.3 1.5-.2 3.2-1.3 5 5.2-.6 6.4-4 7.2-7.3.5 2.5 1.6 7.1-2.8 11.3 2.7.2 6.8-.8 8.1-5.2 1 3.3.7 6.5-1.6 10.8 3.1-.4 5.9-3 7.2-5.4.4 1.8-.3 4.9-2.9 8.4 5.3-.4 7-3.7 8-7 .6 1 1 4.4-1.3 7.3 6.4-.2 6.4-5.4 5.8-7.8 0 0 2.3 1.3 2.8 4.4.4 2.7-1.3 4.8-1.3 4.8 2.6 0 4.6-1 5.3-4 0 0 .6 1.8 1.3 2.7 1.3 1.7 4.2 2.9 5.2 4.8.6 1 .8 2.3.5 3.4-.4 1.5-3 3.5-3 3.5s2.6.4 3.8-.1a5.8 5.8 0 0 0 3-2.8c.7-1.5.8-3.3.8-3.3.3 2.6.6 4.8 2.4 7.9a9 9 0 0 1 1.5 7.2 9.7 9.7 0 0 1-2.3 4.7 7 7 0 0 1-6 2.2c-2.2-.2-4.6-2.3-6.6-2.9a8.5 8.5 0 0 0-4.2-.5c-3 .7-5.5 2-7.5 4.3-1.4 1.6-2 6.2-2 6.2 4 0 5.3 1 6.4 2.2-.1 2-1.7 2.8.2 5.3 4-1.6 6.4.7 8.5 3 3 .5 5.7 2 6.1 5.1 0 0 1.6-1 3.5-.8 4.3.2 7.3 1.6 9.6 1.4 2.9-.2 6.5-.8 8.5-4.6.9-1.7 0-4.8 1-7.2 3.2 1 5.3-1 6.2-3.5.8-2.3-1.2-6-4.5-8.2-.8-.5-1.2-1.8-1.1-2.8l-.2-3c-.7-1.5-.4-3.3 0-4.9.7-2.8 3-4.9 4-7.5 1-2.6 1.7-8 1.7-8 2.3-1.2 3.5-3.6 2.8-6.2 4.1-1 5-4.8 4.3-8.4-.9 1.6-1.7 2.9-2.8 3.5-2.7 1.5-4.2-.1-6-1a10 10 0 0 0-3.9-.7c1-3 1-5.8-1-8.3a10 10 0 0 0-5.3-2.8c-2.7-.7-6.4.3-9-.3-2.5-.7-5.7-3.2-5.7-3.2 3.5-1 4.7-2.7 5.6-4.3-4.4.6-8.2.4-10.4-1.4 2.4.1 7.5-.1 9-3.4-3.8-.3-6.4-.2-9-3.4-3.5-4.5-3.4-8.7-7-14.2-4-6-10.3-6-10-11.7 1.7 0 3.4 0 5-1.3-2-.7-4-2-4.8-3.2 1.8.1 3.5-.1 5.3-1.4a13 13 0 0 1-5-4.8c2 .5 3.1-.3 4.8-1.2-3.8-1.9-4.5-3.3-5.5-5 3.6.3 4.9-.8 5.7-2-4.9 1.3-6.2-2.4-7-12 0-1.5-.9-3-2-6.2 12.5 10.4 22.3 21.4 36.5 26.3 12 4.3 27.8 7.8 41 1.5 8.7-4 14.5-11.3 17-20.4 3.6-12.5.6-26-6.3-36.5-7.5-11.3-20-18-31.7-24.7-11.8-6.7-23-12.5-28.6-21.8a20.3 20.3 0 0 1-1.4-19.1c2.5-4.9 4.9-7.5 12.7-7.7 0 0 2.5 5.5 7.6 9.5 6.4 5.2 16.8 8 25 7 6.9-1 14-3.1 17-12 1.8-5.5-2-11.1-2.3-17.1-.1-2.2 1.2-4 2.8-5 3-2 8.7-2.2 8.7-2.2s-4.7-3.2-9-2.8c-3.4.3-5.7 1.8-7.8 4.5-1.6 2-1.7 8.2-3.9 9.9-3 2.3-6.8.6-10.2-1.3-5.3-6-11-6.3-15.8-5.8-8.5 1-12.7 7.2-12.7 7.2z"/>
  <path d="M456 89.2c-1 0-2 .1-2.9.4-2.1.8-4 2.5-5 4.5-1 1.8-1 4-1.2 6-.2 2-.3 3.9-1.3 5.3-1.7 2.3-4.2 2.8-7.3 3.1a9 9 0 0 1-4.1-.8v-1.9c-.3-2.3-1.9-5-1.9-5l-.9.5s1.6 2.7 1.7 4.6c.3 3-.5 4.7-1.2 5.8v-2c-.3-2-.7-4.4-1.8-6-2.8-4-7.5-5.7-12.4-5.8a20 20 0 0 0-13.1 4.8l-1-.7-.6.8c2.1 1.4 2.7 3 2.6 4.4h-4c-3.6.3-6.5 1.3-8.9 3-3.1 2.3-5.2 6-6.6 10.6-2.4 8.3.5 16.4 6.2 22.9 1.9 2 15.4 13.5 24.5 15.5-7.1-3-18.3-9.7-23.7-16.2-5.4-6.5-8.4-14-6-21.9 1.3-4.6 3.3-8 6.2-10 2.9-2.2 7.1-3.2 12.1-3-.3 1-1 1.8-1.5 2l.3 1c.4-.2.9-.5 1.3-.9 5.1 9 18.7 17.4 37.7 14.4l5.5-1.2-.3-1-2.2.5 1-.7c1.4-1.4 2.6-3.1 3.5-5 .6-1.4 1-2.8.9-4.2 2-3.7 2-7.7 2-7.7h-1s0 3-1.4 6a5 5 0 0 0-2-2.3 16 16 0 0 0 2.7-11.2l-1 .1c.5 5.1-.8 8.2-2.5 10.6a9 9 0 0 0-1.3-.5h-.3l-1.7-.6 1.2 1.3 1 1.2c-2 2-4.6 3-6.8 3.3h-.3l.4-.8.3-1.3v-1.3l-.9 1-2.4 2.2c-1.4-.3-2.9-.8-4.4-1.5.3-.8.7-1.7.8-2.7 1.5.5 3 .9 4.4.7 3.1-.3 6-.8 8-3.5a11 11 0 0 0 1.5-5.9c.1-2 .2-4 1-5.5 1-1.8 2.7-3.4 4.6-4 1.3-.5 3.6-.4 5.6-.2l3.6.7-1.3-1.1s-.1-.3-2.2-.6l-3.1-.2zM417.8 99c4.6 0 9 1.8 11.6 5.4.2.4.5.8.6 1.3a24 24 0 0 0-9.6-4.3c-1.5-.2-2.8-.3-4-.2-3.7 0-6.8 1.2-10.6 3l-.4-.7c3.2-2.9 7.9-4.5 12.4-4.5zm-1.4 3.2c1.2 0 2.4 0 3.8.2 3.6.5 8.2 3 10.3 4.9.2.9.4 1.8.4 2.6v.6c-3.3-1.7-7-3.8-11-5a21 21 0 0 0-6.6-.8 17 17 0 0 0-6.6 1.6c0-.4-.2-.8-.4-1.3 3.7-1.7 6.6-2.7 10-2.8zm-3 3.5c2.1-.1 4.2.2 6.3.8 4 1.2 7.9 3.4 11.4 5.2v3.1l.8-1 1-1.3c1.3.6 2.5 1 3.8 1.4-1.6 1-3.1 1.8-4.7 2.4v-.1c-4.6-2.1-9-6-14-7.6-1.4-.4-2.7-.6-3.9-.7-2.5 0-4.4.6-5.2 1l-1.4-1.8c2-.9 4-1.4 5.8-1.4zm-6.7 2c3.1 4.5 8.4 8.5 14.5 10 3.2.8 6.7.8 10.2-.3h.3c2.7-1 5.3-2.5 7.8-4.8l-.6 1.3a17 17 0 0 1-3.5 4.3c-3.2 2.8-8 4.9-15.1 3.2a28.3 28.3 0 0 1-14-12l.4-1.7zm6.6 1.2c1.2 0 2.7.2 4.4.7 4.1 1.3 8.2 4.6 12.4 6.8-4.4-.3-7.2-1.8-9.9-3.3-2.8-1.6-5.6-3.3-10-3.7a11 11 0 0 1 3-.5zm34.8.8c1.2.6 2 1.4 2.4 2.4.4 1.4.1 3.1-.6 4.8a15 15 0 0 1-3.4 4.7 8.3 8.3 0 0 1-3.5 2c-6.7 1.2-12.8.7-18-.6 3.8 0 6.8-1.1 9.2-2.7 4 1.6 8.7.3 11.6-2.3 1.6-1.3 2.7-3 3-4.7.3-1.2 0-2.4-.7-3.6zm-37.8.7c4.1.4 6.7 2 9.5 3.5 2.3 1.4 4.8 2.7 8.5 3.3-2.4.3-4.7 0-6.9-.5a25 25 0 0 1-11-6.3zm37.5.6c.2.7.2 1.4 0 2.1-.2 1.5-1.2 3-2.6 4.2l-1 .7c-2.4.6-4.5.3-7-.2 1.2-1.2 2-2.4 2.6-3.4l.9-.1c2.3-.3 5-1.3 7-3.3zm-11.4 7.6c1.8.5 3.5.8 5.2.8-2 .7-4.3.9-6.4.3l.9-.7.3-.4zm-205 62.3c-4.8 1.9-9.7 2-13.6 1 3.2 3.2 12.2.6 14 0l-.4-1zm-12.7 5.1c2.4 1.5 6.9 2.2 8.7 5.1 2.1 3.5 2.6 5.3 3 6.6.3.7.5 1.2 1 1.7.5.4 1.1.8 2.1 1.1.5.2 1 .1 1.4 0l1.4-.7.4-.3c-.2 1-.6 1.9-1.2 2.4-.9.7-2.1 1.1-3.7 1.2-1.8.1-3.5-.9-4.8-2-1.2-1-2-2-2-2l-1.4-1.2a1311 1311 0 0 0 2 7.9c0 1-.2 2.2-.5 3.5a8.5 8.5 0 0 0-.2 3.7 8 8 0 0 0 1.7 3v.2l-.5-.2a7.1 7.1 0 0 1-3.2-2 7 7 0 0 1-1-3.3c0-1.3-.1-2.6-.7-3.8a17.4 17.4 0 0 0-7.3-6.5c.5 2 3 5.1 3.3 8 0 .5-.3 1.7-.7 2.6l-.3.5-.2-.6c-.4-1-.8-2.2-1.4-3a3.9 3.9 0 0 0-2.2-1.4c-3-.6-3.3-4.4-4.1-4.5l.3 1.4c.3.8.6 1.8 1.2 2.5.5.7 1.4 1 2.1 1.4.8.5 1.6.9 1.9 1.3.4.5 1 1.7 1.3 2.6l.5 1.8.3 1.2.6-1 .9-1.8c.4-1 .8-2.2.8-3.2-.1-1.6-1.1-3.4-2-5l-.3-.3.6.4c1.5 1.2 3.2 2.8 3.8 4 .4 1 .5 2.2.7 3.5.1 1.3.3 2.7 1 3.7a7.6 7.6 0 0 0 3.7 2.4c1.3.5 2.5.7 2.5.7l1.6.3-1.2-1.1-1.3-1.4a7.7 7.7 0 0 1-1.4-2.6c-.3-1 0-2.1.2-3.3.3-1.2.6-2.5.5-3.8 0-1.5-.5-3.1-.9-4.4l.7.7c1.4 1 3.3 2.2 5.4 2.1 1.7-.1 3.2-.5 4.3-1.4 1-1 1.7-2.3 1.9-4.2v-1.1l-.8.6-1.4 1-1.2.5-.8.1a5 5 0 0 1-1.7-1c-.3-.3-.5-.7-.7-1.3-.5-1.1-1-3.2-3.1-6.7-1.2-2-3.6-3-5.7-3.8-2-.6-3.9-.8-3.9-.8zm66.8 14.2a2 2 0 0 0-.8.2c1 .7 1.7 1.6 2 2.4.2.7 0 1.2 0 2.4.8-.5 1.5-2.3.8-3.6a3 3 0 0 0-.2-.4c-.4-.5-1-1-1.8-1zm-7.3.6c-.4 0-.8.2-1.2.5a5 5 0 0 1 2.5 1.9c.4.6.9 1.5 1.1 2.7.5-.8.4-2 0-3.2a4 4 0 0 0-.7-1c-.4-.5-1-.9-1.7-.9zm3.5.4a2 2 0 0 0-.8.2c1 .7 1.7 1.6 2 2.3.2.7 0 1.3 0 2.5.9-.5 1.6-2.4.9-3.7a3 3 0 0 0-.3-.3c-.4-.6-1-1-1.8-1zm-7.6.7h-.3a2 2 0 0 0-.8.4c1.1.5 2 1.4 2.4 2 .4.7.7 1.6.9 2.8.5-.7.6-2 .2-3.2l-.6-1c-.4-.5-1-1-1.8-1zm63.4.2c2.6 3 2.9 7.1.6 11.3 3.8-1.2 4.1-9.7-.6-11.3zm-66.5 1.4c-.2 0-.5.1-.7.3 1 .5 1.8 1.4 2 2.1.3.8.2 1.3.2 2.5.9-.6 1.4-2.4.6-3.7l-.2-.3c-.4-.6-1.1-1-1.9-.9zm-3.6 0c-.6.1-1.1.4-1.5 1 1.3 0 2.5.5 3 1 .6.5 1.3 1.2 1.9 2.2.2-.9-.3-2-1-3l-1-.8c-.4-.2-1-.4-1.4-.3zm73.8 1c2.5 4 1.5 7.6-1.3 11.2 4-.7 5.8-9 1.3-11.2zm-77 .3c-.6 0-1.1.3-1.5.9 1.2 0 2.4.5 3 1 .6.5 1.3 1.2 1.9 2.2.2-.9-.3-2.1-1-3l-1-.7c-.4-.3-1-.5-1.5-.4zm80.5 2.2c1.9 3.8.4 7.6-2.6 11 4-.2 6.7-8.3 2.6-11zm20.2 22.8c0 3 4.9 6.4 5.4 6.8l-1.4-2.7.3-.8c-1.7-.1-3.3-1.4-4.3-3.3zm-71.5 2.6a11 11 0 0 0-4.3 1.3c-1.4.7-2.4 2-3.4 3.6s-1.8 3.4-2.7 5.2a20 20 0 0 1-2.8 4.4c-1 1-2 1.5-3 1.6 0-.7 0-1.7-.3-3a6.2 6.2 0 0 0-2.6-3.5c-.6-.4-1.6-.7-2.4-.8l-1.6-.2h-1.1l.7.9s.6.5 1.1 1.3c.5.8 1 1.8 1.1 2.4.1 1-.4 2-1 2.8-.6.8-1.7 1.4-2.8 1.9-1 .5-2.3 1-3.2 1.8-.6.6-.8 1-1.2 1.6a5 5 0 0 0-1.2-2.6c-1-.9-2-1.4-3.4-1.7l-1-.2.5 1s1.1 2.2.3 4.5a5.4 5.4 0 0 1-2.3 3c.3-1.2.6-2.5.3-3.8-.5-2-2-3.7-5.2-4.5l-1-.3.4 1c.9 1.6 1 3 .8 4.3 0 .5-.2.6-.3 1a9.4 9.4 0 0 0-1.2-3.3c-1-1.6-2.7-3-5.3-3.7l-1-.2.4 1c1.4 3 1.6 5.2 1.4 6.9-1.2-2.4-3-4.6-5.6-5.6l-.9-.3.3 1c1.2 3.9 1 6.7 0 9.2-.5-1.6-1.3-3-2.4-3.8a9.2 9.2 0 0 0-4.6-1.8l-1.1-.1.6.9c2.8 3.8 2 7.1 1.2 9.5-.2-1-.5-2-1-2.9-1-1.3-2.4-2.2-4.7-3l-1-.3.4 1c1.6 5.8-1.5 6.5-3.2 8.4a6.5 6.5 0 0 0 4-3c.7-1.3.8-3 .3-4.8 1.6.7 2.7 1.4 3.3 2.3.7 1 1 2.4 1.3 4.2l.3 1.7.6-1.6c.9-2.2 2.6-6.4-.2-11a6.4 6.4 0 0 1 5.6 6l.2 1.6.8-1.5c1.4-3 1.8-6 .8-10.2 2.3 1.2 4 3.6 4.8 5.9l.4 1.2.5-1.2v-.4c.7-1.7.5-4.4-.8-7.6 1.8.6 3 1.6 3.8 2.7.8 1.4 1.2 3 1.3 4.8v1.2l.9-1 .1-.3c.4-.6.9-1.5 1-2.7.2-1.1 0-2.4-.5-3.7 2 .7 3.2 1.9 3.5 3.2.4 1.6-.1 3.3-.6 4.4l-.4 1 1-.3s2.8-1 4-4.2a6 6 0 0 0 0-4.1c.6.2 1.4.4 1.8.9.7.7 1.2 1.6 1.2 3v1.8l1-1.5s.9-1.6 1.6-2.2c.8-.7 1.9-1.2 3-1.7a8.8 8.8 0 0 0 3.1-2.1c.8-1 1.4-2.3 1.3-3.6 0-1-.7-2-1.3-2.8l-.4-.5h.3c.7.1 1.7.4 2 .6 1 .7 2 1.8 2.2 3 .4 1.4.1 3.2.1 3.2v.5h.5c1.8.2 3.2-.6 4.4-1.9 1.2-1.2 2.1-2.9 3-4.7 1-1.7 1.8-3.7 2.7-5.2 1-1.6 1.9-2.1 3-2.6 1-.5 1.8-.8 2.7-1 .4.5.7 1 .8 1.5.2.7.3 1.7.2 2.9.7-.6 1-1.9 1-3a3.8 3.8 0 0 0-.6-1.6h1a5 5 0 0 1 1.5 2.4c.2.7.3 1.7.2 2.9.7-.6 1-1.9 1-3a4 4 0 0 0-.4-1.2c0-.1 0-.3-.2-.4l1.8 1c.4 1 .5 2 .3 2.8-.2.7-.6 1-1.3 2 1 .1 2.6-1 2.7-2.6v-.4l-.1-.5a38 38 0 0 1 7 8.2c1.8 3 3.7 6 7 9.3 6.5 6.5 14.6 7.8 19.4 10.3 3.3 1.7 15.6 12.1 18.3 12.6 0 0-10.5-8.8-17.8-13.4-5-3.1-13-4-19.2-10.2-3.2-3.2-5-6.2-7-9.1-1.8-3-3.9-6-7.4-9-2-1.7-3.9-2.8-5.7-3a7 7 0 0 0-1.4-.2zm72.8 3.3c.5 3 2.8 4.9 3.8 6.2l-.5-1.8 1-.6c-2.2-.5-3-1.4-4.3-3.8zm-177.6 0a39.4 39.4 0 0 0 4 4c1.3 1.6 1.6 3.4 2 5.2a9.4 9.4 0 0 0 5.7 7.1c-1 .2-2.5.3-4.5-.5-3.8-1.3-5.2-3.7-7-5.3a16.3 16.3 0 0 0-3.8-2.3l3.5 3.2c.5.5.8 2 1 2.7.6 2 1.6 3.6 3.4 5.8-5.5-1.3-6.8-5.4-7.5-6.2.4 3 3.1 7 8.6 7.5l1.3.2-.8-1a16 16 0 0 1-4-6.5c1.1 1 2.7 2 5 2.9 3.6 1.3 6.4.1 6.4.1l1.1-.5-1-.4s-2.2-.9-3.8-2.3c-1.5-1.3-2-2.9-2.5-4.7-.5-1.8-.7-4-2.2-5.7-1.1-1.2-2.3-2.9-4.9-3.3zm176.8 5c1 4.5 4 6.5 4.8 7l-.7-1.7 1.7-.6c-3.1 0-4.5-1.8-5.8-4.7zm-.2 6c.3 1.2.6 1.9 1.4 2.8 1.6 1.7 1.5 2.4 2.2 4.3l-.1-3.2 1.2-.7c-1.5 0-3.2-.8-4.7-3.1zm-152.5 13.9c.2.9 1.1 1.8 2.2 2.3l1 .4c1.1 0 2.4-.3 2.6-1.7a5 5 0 0 1-3.2.3c-.7-.2-1.6-.6-2.6-1.3zm-2.4 2.4c.1.9 1 1.8 2 2.3l1.2.4c1 0 2.3-.3 2.5-1.7a5 5 0 0 1-3.1.3c-.8-.2-1.7-.6-2.6-1.3zm-2 0c-.5.9-.2 2.8 1 3.7l.4.2c.8.4 2 .5 2.6-.5a4.6 4.6 0 0 1-2.8-1.2c-.5-.5-.6-1-1.1-2.1zm-6.8.5c-.2 1 .3 2.2 1.1 3l1 .8c.8.5 2.2.6 2.8-.6-1.2 0-2.4-.4-3-1a8.5 8.5 0 0 1-1.9-2.2zm-5 .7c-.7.5-1.3 2.5-.5 3.7l.3.3c.6.7 1.6 1.2 2.6.6-1-.6-1.8-1.5-2.1-2.2-.3-.7-.2-1.2-.2-2.4zm1.8.6c-.2 1 .3 2.1 1.1 3l1 .8c.8.5 2.2.6 2.9-.6-1.3 0-2.5-.5-3-1a8.6 8.6 0 0 1-2-2.2zm-64 1.9-2.2 9c-1 5-2.1 10.6-2 14.1 0 2 .2 3.3.4 4.5.3 1.3.5 2.5.5 4.3 0 4.5-1.1 9.2-1.4 13.8v6c.4-.7 2.8-15.5 2.5-19.8 0-2-.3-3.2-.5-4.5-.2-1.2-.5-2.4-.5-4.3 0-3.2 1-9 2.1-13.9l2.2-9-1-.2zm83.7 8.9c-2.9.7-5 6.2-5.3 6.8l2.3-2 1 .1c-.4-1.7.4-3.5 2-5zm-64.2 2.3c-3.2 4.1.4 10 2 12.2a8.2 8.2 0 0 1 1.7 3.8c.1 1.4-.3 3.1-1.7 5.7l-.8 1.3 1.4-.6 1-.5a35.4 35.4 0 0 0-5 8.7c-1 2.5-7.5 16.1-6.1 19.3.4-1.6 3.1-10 6.8-17.9 1.8-4 3.9-7.8 6-10.6 2.1-2.7 4.2-4.4 6-4.4.7 0 1.7.2 2.2 1.1.5 1 .6 2.8-1 6.2 2.8-1 2.6-5.4 2-6.7-.8-1.4-2.3-1.7-3.2-1.7-1 0-2 .3-3 1 1-2.4 1.2-5 1-8.2h-1c.2 3.2 0 5.8-1 8-.7 1.6-2 3-3.8 4a9.7 9.7 0 0 0 1.2-4.8 9 9 0 0 0-2-4.2c-1.7-2.6-3.8-5.2-2.7-11.8zm58.9.3c-2.9 1.2-4.1 3.9-5.2 5.2l1.6-.9.9.9c-.1-2.3.7-3.3 2.7-5.2zm168.7 0-1 .2c-.5 0-1 .2-1.5.4 1.6.3 2.8 0 4.8 1 1 .6 1.8 1.4 2.8 2.5-.9 0-1.7.2-2.4 0-1.3 0-1.8-.1-3.6-1a5 5 0 0 0 3.4 2c1.3.2 2.5 0 3.7 0l1-.1-.7-.8a13.1 13.1 0 0 0-3.8-3.5 6 6 0 0 0-2.7-.6zm-173.8.4c-4.2 2-5.4 5.4-5.7 6.3l1.5-1 1 1.4c-.8-3 .7-4.8 3.2-6.7zm-6 1.3c-1 .5-1.8.7-2.5 1.7-1 1.4-1.4 1.7-2.3 3.3l2-.8 1 1c-.5-1.4 0-3.2 1.8-5.3zm147.3 3.5h-.4l-.5.2c1 .4 2 1.4 1 3-.5.8 0 1.9.4 2.6a7 7 0 0 0 1.2 1.6c.4.4.8.8 1 1.4 1 1.9.5 3.4.5 3.4l1 .3s.5-2-.5-4.2c-.4-.7-.8-1.2-1.3-1.6a6 6 0 0 1-1-1.3c-.3-.6-.6-1.4-.4-2l.2-.2c.2-.2.4-.5.5-.9 0-.4 0-.8-.2-1.2-.2-.4-.5-.7-.9-.9l-.6-.2zm35.6 4.4c2 1.4 4 1.9 6.2 1.6l1.4-1.5s-2 .4-2.7.4c-1.8 0-2.3 0-4.9-.5zm-20.5 3.2-.7.1c-1.4.4-2.3 2.3-1.5 3.6a3.1 3.1 0 0 1 2.5-2.6c.8 0 2 .5 2.6 1a2.8 2.8 0 0 0-3-2zm39 5.5h-.6l-.6.3c1.4.2 2.7.9 3.5 2 .8 1 1 2.6.4 4.6l-.3.8.8-.1c2.3-.3 4.1-.4 5.6-.3l.1-1c-1.5-.1-3.2 0-5.2.3.5-2 .3-3.7-.6-5a4.8 4.8 0 0 0-3-1.6zm-35.7.2s1.3 2.9 2.6 4.1c1.2 1.3 2.6 2.3 4.1 3 4.1 2.1 9 2.6 12.7 4.7 2.7 1.6 4.9 3.7 6.3 6.4.6 1.4 1.1 3.4 1.6 5.5.5 2 1 4.1 1.8 5.6a8 8 0 0 0 3.5 3.5c-.6 0-1.3.2-1.9.1a5.8 5.8 0 0 1-3.6-1.9l-.7.7c1.3 1.4 2.8 2 4.2 2.2 1.7.2 4-.2 5.9-.7-2.8-.5-5-1.7-6.5-4.3a29 29 0 0 1-1.7-5.4c-.5-2.1-1-4.2-1.7-5.7-1.5-3-3.9-5.2-6.7-6.8-4-2.3-8.9-2.8-12.7-4.7-1.4-.8-3.2-1.7-4.3-2.9-1-1-1.2-1.3-2.9-3.4zM162 300.9c-.3 0-.6.2-.9.4 1.1.5 1.9 1.3 2.2 2 .4.7.3 1.2.4 2.4.8-.5 1.2-2.5.3-3.7-.4-.6-1.2-1.2-2-1zm246 5.7-1.3.2c-.3 0-.5.2-.8.3 1.9.2 3.5 0 5.6 1.2l3.4 1.7-.2.4-.8 1c-.6.2-1.5.4-2 .3-.7-.1-1.3-.5-2-1-1.5-.8-3-1-4.8-.8 1.3.7 2.8.3 4.3 1.7.6.6 1.4.9 2.3 1 1 .2 1.9 0 2.6-.4.6-.3 1-.8 1.3-1.3l.3-.6c.4.2 1 .3 1.4.3 1.4 0 2.9-.4 2.9-.4l-.3-1s-1.4.4-2.5.4c-2 0-3.4-1.4-5.5-2.2a9.5 9.5 0 0 0-3.9-.8zm-21.6 6a9 9 0 0 1 4.7 8.5h1c0-1.3-.7-8-5.7-8.5zm20.7 1.7c1.4 1.7 3 2.7 4.8 3 1.8.4 3.6 0 5.4-.9l-.4-.9a7.3 7.3 0 0 1-4.8.9c-1.6-.4-3-1-5-2zm-283.2 16.5c-1.4.3-3.4 1.8-4.7 3.1-3.1 3-3.9 7.7-6.6 10.5a13.7 13.7 0 0 1-5.6 3.7c-2.4.7-5.2.4-7.8-.1-.4 0-.8-.3-1.3-.6-.5-.2-1-.5-1.7-.5a13 13 0 0 0-7.4 2.4c-1 .6-1.8 1.5-2.3 2.5-.3.5-.2 1-.2 1.4l-.1.9-.8.6a5 5 0 0 1-.5.4l.4.9.7-.5c.4-.2.8-.5 1-1 .3-.4.3-1 .3-1.3v-1c.5-.8 1.2-1.6 2-2.1 2-1.3 4.6-2.3 6.9-2.2.4 0 .8.2 1.2.4.5.3 1 .6 1.6.7 2.7.6 5.6.9 8.3 0 2.3-.6 4.4-2.2 6-4 3-3 4-7.4 6.6-10.4 1.1-1.4 4-3.8 4-3.8zm6.9 1.7a12 12 0 0 0-5.5 3.5c-2.5 3.1-3.3 7.1-5.5 9.9-.8 1-2.4 2.3-3.7 3.4l-2.5 2c2.3-.2 5.7-3 7-4.7 2.5-3 3.3-7 5.6-9.9 1.2-1.5 4.6-4.2 4.6-4.2zm7.1 6.4h-.3c-.9.2-1.8.6-2.3 1.4-.5 1-.7 2.3.5 3 0-1.2.5-2.2 1-2.8.5-.6 1-.7 2-1.3a2 2 0 0 0-.9-.3zm253.3 6.4.3 1.4c0 .5-.3 1.2-.6 1.5-.5.5-1.6.7-2.3.5a28 28 0 0 0-8.6-1.5c-2.3.1-4.3 2-6.4 4.6l.6 1.8h1c-.4-1.5 2.8-5.3 4.8-5.4 2.3-.1 4.9.5 8.3 1.4 1.1.3 2.6.2 3.3-.7.7-.8.6-2.8-.4-3.6zm5.7 5.4-.3.6-.7.7c-.4.3-1.6.8-2.1.8-1.6.2-3.2-.4-5 0a9 9 0 0 0-6.3 3.9c-.4.9.4 2 .4 2l1 1s-.2-.6.1-1.5l1.3-2.3c1.1-1.3 2-1.7 3.7-2 1.5-.4 3.4.1 5.2-.2 1.7-.3 3-1.3 2.7-3zM108 352.2c-1.3 0-2.6 1.8-5 1.5-1.3.2-3-.5-4.7-.2-1.9.3-3.8 1-5 2.7a7.7 7.7 0 0 0-1 5.3c0 .5.3 1 .5 1.6l.4.8.9-.4-.4-.8-.5-1.3c-.1-1.7 0-3.3 1-4.6.9-1.4 2.5-2 4.3-2.3 1.4-.3 3 .4 4.7.2 1.7-.2 3.7-1 4.8-2.5zm.8 6c-.5.1-1 .4-1.3 1a4 4 0 0 1 2.4.4c.6.3.8.7 1.5 1.4.2-.7-.4-2.2-1.6-2.6-.3-.1-.6-.2-1-.1zm-.7 2c-.7 0-1.3.4-1.6 1.2 1.2-.2 2.2 0 3 .4.6.4.8 1 1.6 1.9.3-1-.4-2.8-1.8-3.4l-1.2-.1z" color="#000" font-family="Sans" font-weight="400" overflow="visible" style="text-indent:0;text-align:start;line-height:normal;text-transform:none;block-progression:tb;marker:none;-inkscape-font-specification:Sans" transform="translate(0 .2)"/>
  <path fill="#d3a034" stroke="#000" d="M169.5 253.3c10.4-7.2 10.9 9.3 22 7-1.2 4.3-3.6 5.4-8.2 5.8l-12.2-7z"/>
  <path fill="#d3a034" stroke="#000" d="M182.8 265.3c12-.4 16.8 18.5 4 29.2l-2-6.5.5-15zM175.4 299.9a11 11 0 0 0-4.6-10.3c-5.8-3.5-9.8-6-7.5-13.6.4-2.4-3-5-3.1-9-4.2 4-5 11-3.3 15.7 1.9 5.4 6.6 8.6 11 10.2a18 18 0 0 1 7.5 7z"/>
  <path fill="#d3a034" stroke="#000" d="M160.3 267.9c13.6 8.2 14 14.5 11.4 29 9.6-9.9 7.3-26.2-5-36.4M372.3 355.7c-.6-3.2-3-4-6-3.6-.2-5.6 8.3-2.1 7.7 1.6z"/>
  <path fill="#d3a034" stroke="#000" d="M381.4 361.3c-1.5-3-6.5-5.3-8.8-3-.5-1.5-.9-2.5.3-4 4.1-2.2 9.8 2.2 9.9 4 0 1.7-.5 2.4-1.4 3z"/>
  <path fill="#d3a034" stroke="#000" d="M387.4 366.8c-.7-3.5-4-5.6-6.2-5.1 1.6-7 12.3 2.3 6.2 5zM99.4 365.5c-1.8-3-4-2.7-6-1.6-1-7 12.3-1.6 6 1.6z"/>
  <path fill="#d3a034" stroke="#000" d="M92.6 365.7c-2.3-3.5-6.6-2.8-8.4-1.4-2.8-7 13-4.4 8.4 1.4zM83 358.3c-.3-2.8-3.6-3.8-5.6-3.3 1-4.4 7.2-2.6 7.9.6-.4.3-1.5 1.2-2.3 2.7zM144.5 353.5c-1.7-1-2.7-3-6.3-1.2-1-.8-1.5-1.7-2-2.6 4.2-1.3 7.4-1.6 10 2zM415.1 330.9c-4.3 5.8-.9 8.3 1.2 11 .8.9 1 2.2.8 3.3-.3 1.7-2.4 4.6-2.4 4.6s.4-2.9-.5-5.2c-.8-2-3.7-2.5-4.9-4.5a11.1 11.1 0 0 1-1.2-7.2c.3-2.7 2.9-7.2 2.9-7.2l4.3-1.7z"/>
  <path fill="#d3a034" stroke="#000" d="M418 315.6a8 8 0 0 1-4.7 1.6c.1 2.8.6 5.5-4.4 9 1.2 1.6 3 1 4.8.4-.9 4.9.7 7.9 4.6 9.3 0 0-1.6-3-1.8-4.8-.3-3.4 1.4-6.5 1.9-9.9.3-2.5-.5-5.6-.5-5.6z"/>
  <path fill="#d3a034" d="M166.1 260.6c.1 9.7.3 23.2 26 18.6-11.1 10-33.2 6.4-34-14.9"/>
  <path d="M454.5 194.8c-2.6-1-4.1-1-5.7-1.3l5.3 2.3c4.4 2 8.7 5 12.7 10.2l.8-.6c-4-5.3-8.6-8.5-13.1-10.6zM267.3 252.3c0 4.9 0 10.8 3.5 15 1.7 2.1 4.3 3.7 8 4.5 3.3.7 7.7.6 13-.1a21.4 21.4 0 0 1-18.7 3c-6.9-2.2-12.4-8.2-12.8-18.7l-.2-3.3-.8 3.4c.4 10.8 6.3 17.2 13.4 19.6 7.2 2.4 15.7.7 21.5-4.4l1.3-1.2-1.8.3a39.4 39.4 0 0 1-14.7.4c-3.5-.7-5.8-2.2-7.4-4.1-3.1-3.9-3.3-9.5-3.3-14.4l-.9-1.9-.1 2z" color="#000" font-family="Sans" font-weight="400" overflow="visible" style="text-indent:0;text-align:start;line-height:normal;text-transform:none;block-progression:tb;marker:none;-inkscape-font-specification:Sans" transform="translate(-101.7 8.3)"/>
  <path fill="#d3a034" d="M173.2 241s-6.1 10 1.4 15.9c3.4 2.6 7.4 3.8 10.3 7 9.3 10.5 1.6 20 2.5 26 1 6.6 6.8 9.7 6.8 9.7s-7.8.5-10.6-5.1c-4.3-8.6 3-16-3-24.5-2.6-3.6-5.8-3-9.6-5.4-3.5-2.2-3.7-3.5-3.7-3.5 0-.6-.5-.9-.4-1.4 0-1.1 1.3-2 1.6-3 .3-1.4-.3-2.8 0-3.8 1.2-4.9 3.2-7.6 4.7-12z"/>
  <path d="M274.4 232.4s-1.5 2.6-2.1 6c-.7 3.3-.3 7.5 3.6 10.6 3.6 2.7 7.5 3.8 10.3 7 4.5 5.1 4.9 9.9 4.3 14.3-.7 4.3-2.4 8.2-2 11.5.9 5.2 4 7.7 5.7 8.9-2 0-6.4-.5-8.5-4.7-2-4.2-1.4-8-.9-12 .6-4 .9-8.1-2.2-12.5a9.2 9.2 0 0 0-4.5-3.4c-1.7-.6-3.3-1-5.1-2.2-3.4-2.2-5.8-6.3-5.8-6.3l.2 2.4s1.5 2.5 5 4.7c2 1.2 3.8 1.7 5.3 2.3a8 8 0 0 1 4 3c3 4.2 2.7 8 2.1 12-.5 3.9-1.2 8 1 12.4 3 6 11 5.4 11 5.4h1.8l-1.5-.9s-5.6-3-6.5-9.3c-.4-2.8 1.2-6.7 1.9-11.2.6-4.5.2-9.7-4.6-15-3-3.5-7-4.6-10.4-7.2-3.5-2.8-3.8-6.5-3.3-9.7.6-3.1 2.1-5.6 2.1-5.6l-.9-.5z" color="#000" font-family="Sans" font-weight="400" overflow="visible" style="text-indent:0;text-align:start;line-height:normal;text-transform:none;block-progression:tb;marker:none;-inkscape-font-specification:Sans" transform="translate(-101.7 8.3)"/>
  <g transform="translate(-143.6 -342.7)">
    <path fill="#d3a034" stroke="#000" d="M230.8 582.3c1.3-3.1 0-8-2.2-11-2.3-3.2-5.7-6.3-5.7-9.8 0-4.5 1-10.5 2.3-17.5-6.4 7.7-9.4 12.2-9.3 17.2.4 15.5 12.8 15.5 14.9 21.1zM299.4 557.6c29.1 16.1-8.8 25.2 10.3 40.6-10.5-1.1-12.2-7.2-12.7-19zM272.8 583c15 7 13.4 19.8 10.8 25.8-2.3 5.2-8.4 6.5-3 14.7-7.8-2.7-8.8-6-9.4-17zM324 518.8c11.7 9.1 11.5 20.3 9.2 27-1.7 4.8-8.6 10-2.2 16.8-7-.3-10.5-4.1-11-16z"/>
    <path fill="#d3a034" stroke="#000" d="M272.4 595.4c6.6 23.5-9.3 23.1-.4 36.3-2.6.6-10.9-4.4-9.4-13.8.6-4-.4-17.3-.4-17.3zM362.7 515.6s-7 .8-9.7-3.5c-4-6.4-14.5-15.8-24.8-10.5 3 9.4 25.2 26.7 34.5 14z"/>
    <path fill="#d3a034" stroke="#000" d="m336.3 513.3 1.2 5.5c4 2 9.3 2 12 5.4 4.3 5.4 4.2 9.5 8.3 13 3.6 3 7 2.1 10.4.3 0 0-6-.2-7.3-3.9-2-5.4-2-9.8-5.7-14.5-7.2-9-12.8-4.6-18.9-5.8z"/>
    <path fill="#d3a034" stroke="#000" d="m323 506.5 5.5 1c2 4 3.7 7.7 7.2 10.2 3 2.1 10.5-.5 14.1 3.6 3 3.5 4.2 12.8 2 16.7 0 0-1.2-8.8-5-10-5.4-1.8-11.5.5-16.2-3-9.2-7-6.2-12.5-7.6-18.5z"/>
    <path fill="#d3a034" stroke="#000" d="m332.9 503.4-.8 5.6c3.1 3.1 6.1 5.9 7.4 10 1 3.6-.2 13.4 2.6 18.1 2.3 4 7.1 6.5 11.5 5.7 0 0-6.6-4.9-6.6-8.8 0-5.7 3-12 1-17.6-3.7-11-9.9-9.8-15.1-13z"/>
    <path fill="#d3a034" stroke="#000" d="m335.2 503.5-5.5 5.7c2.1 4 4.2 7.4 4.2 11.7 0 3.8-3.7 11.7-2.4 17 1 4.5 4.6 9.5 9 9.9 0 0-4.9-6.6-3.8-10.3 1.7-5.5 5.7-10.6 6-16.5.4-6-3.4-12.9-7.5-17.5zM319.4 576.4s-1.1-3.4-.7-5c1-3.5 2.2-8.1 2.4-11 .3-4.2.8-10.5-1-14.4-7.6 6.4-12.2 23.9-.7 30.4z"/>
    <path d="m744.8 63.9.7.1c-2.2 6.2-4.8 11.7-4 18.6-2.8-5.6 1.4-14 3.3-18.7z" color="#000" font-family="Sans" font-weight="400" overflow="visible" style="text-indent:0;text-align:start;line-height:normal;text-transform:none;block-progression:tb;marker:none;-inkscape-font-specification:Sans" transform="rotate(-6.5 4842 4082.3)"/>
    <path fill="#d3a034" stroke="#000" d="M256.9 627.2c3-2.5 7.6-8 6.3-16-.7-3.8-4.2-8.3-3.1-11.6 1.4-4.3 1.1-29.4 4.6-35.7-8.5 5.3-14.5 34-14.3 39 .3 13 8.8 11.5 6.5 24.3zM290.3 607.3s-2.5-5.2-2.3-6.8c.4-3.7 2.2-6.5 2-9.4-.3-4.1-1.8-11.4-5.2-11.7-6.6 7.4-6.7 23.2 5.5 28z"/>
    <path fill="#d3a034" stroke="#000" d="M278.9 610.5c-6 0-9-5.6-9.5-9.3-.6-4 .3-8-2.1-10.5-3.1-3.2-8-6.8-14-10.9 10 1 15.3 2.4 18.4 6.3a18.7 18.7 0 0 1 3.6 14.9c-.7 3.3 1 7 3.6 9.5z"/>
    <path fill="#d3a034" stroke="#000" d="M272 616c-3.2-1.2-5.7-5.6-6.2-9.3-.6-4-.3-8.5-2.7-11-3.2-3.2-8-6.8-14-11 10 1 15.2 2.4 18.4 6.3 3.5 4.5 3.5 10.4 2.6 15-.7 3.3.8 8 1.9 10zM280.3 603.5s-2.6-5.2-2.4-6.8c.4-3.7 2.2-6.5 2-9.5-.3-4-1.7-11.3-5.2-11.7-6.6 7.5-6.7 23.2 5.6 28z"/>
    <path fill="#d3a034" stroke="#000" d="M255 616s3.5-3.2 3.9-6.5c.4-4-2-8.6-1.6-11.6.4-4-.2-7.7 3.3-8 7 7.6 7.3 24-5.7 26zM244 610.6s.6-4.5-.8-7.2c-2-4-4.6-6.4-6.1-9-2.3-3.8-3-9.7 0-11.5 9.2 4 16 18.1 7 27.7z"/>
    <path fill="#d3a034" stroke="#000" d="M249.4 571.5c-6.3 13.2-4.3 38.2 6.4 39.6 0 0-4-3.9-3-8.3 1.8-8.1 3-18.9.3-25.2-1.4-3.5-3.7-6-3.7-6z"/>
    <path fill="#d3a034" stroke="#000" d="M257.2 571.7c17.7 17.7 7.4 31 4.4 32.3 0 0 1.2-5.8-4-10.3-2.7-2.2-6.9-8.1-6.9-8.1z"/>
    <path fill="#d3a034" stroke="#000" d="M255.3 605c3-.9 5.3-8.3 2.5-13-2-3.4-4.8-8-4.3-11.5.6-4.4 2.5-10.2 4.8-17-7.5 6.7-12.2 11.4-12.4 16.4-.2 5.7 2.9 10.2 7.9 15.2 2.4 2.4 2.6 6.2 1.5 10z"/>
    <path fill="#d3a034" stroke="#000" stroke-width="1.1" d="M298.3 602.7c-9-15.1-4-26.8-2.8-30.9-.9 2.2-12.6-8.2-12.8-5.3-.2 2.8 2 13.5 2.5 16.4 1.3 8.4 5.4 19 13.1 19.8z"/>
    <path fill="#d3a034" stroke="#000" d="M283 603.8c-1.4-3-.2-7.9 2-11 2.2-3.2 5.6-6.4 5.6-9.8 0-4.5-1.1-10.5-2.5-17.6 6.5 7.7 9.3 12.3 8.9 17.3-.5 5.6-4.6 10-8.4 12.5a18 18 0 0 0-5.6 8.6z"/>
    <path fill="#d3a034" stroke="#000" d="M289.9 596.6c9-12.7 4-22.5 2.8-25.8.9 1.8 12.6-7 12.8-4.5.2 2.3-2 11.2-2.5 13.7-1.3 7-5.4 15.8-13.1 16.6zM274.7 592.8c7.8-11.8-4-18.3-5.2-22.5 3.2-.8 17-7.6 17.3-5.2.2 2.4-2.5 10.1-2.3 12.6.3 6-.5 12.3-9.8 15.1zM252 598.9c-8.9-12.7-4-22.5-2.7-25.8-.9 1.8-12.6-6.9-12.8-4.5-.3 2.3 2 11.3 2.5 13.7 1.2 7 5.4 15.8 13 16.6zM224.2 589.7c3 .1 10.6-.6 9.3-9.8-.5-4-5.3-7-4.7-10.4.7-4.4 2.7-10.2 5.2-16.9-7.6 6.5-11.1 10.6-11.5 15.6-.4 5.7 2.3 7.3 5.7 13.3 1.6 3-1 5.4-4 8.2z"/>
    <path fill="#d3a034" stroke="#000" d="M243.3 595.8c1.4-3.1.2-8-2-11-2.3-3.3-5.7-6.4-5.6-9.9 0-4.5 1-10.5 2.5-17.5-6.5 7.6-9.4 12.2-9 17.2.6 5.6 4.7 10 8.5 12.5 2.8 2 5 6.4 5.6 8.7z"/>
    <g id="d" stroke-dasharray="none" stroke-miterlimit="4" stroke-width="1">
      <path fill="#d3a034" stroke="#000" d="M263.5 596s1.7-3.1 1.6-4.7c-.3-3.7-.7-8.5-.3-11.4.4-4.1 1.2-10.4 3.7-14 6.2 7.8 7.4 25.9-5 30.1z"/>
      <path d="M226.9 222.7h-.7c.2 6.5 1 12.6-1.7 18.9 4.3-4.5 2.8-13.8 2.4-18.9z" color="#000" font-family="Sans" font-weight="400" overflow="visible" style="text-indent:0;text-align:start;line-height:normal;text-transform:none;block-progression:tb;marker:none;-inkscape-font-specification:Sans" transform="translate(42.4 348.3)"/>
    </g>
    <path fill="#d3a034" stroke="#000" d="M272 540.8c-6.4 13.2-7.1 31.5 4.4 40.2 0 0-.8-5.3.4-7.8a34.3 34.3 0 0 0 0-24.8c-1.5-3.4-4.9-7.6-4.9-7.6z"/>
    <path d="m232 197.3.6.2a86.3 86.3 0 0 0-.3 29.3c-3.7-4.6-1.4-26.4-.4-29.5z" color="#000" font-family="Sans" font-weight="400" overflow="visible" style="text-indent:0;text-align:start;line-height:normal;text-transform:none;block-progression:tb;marker:none;-inkscape-font-specification:Sans" transform="translate(41.9 346.8)"/>
    <use xlink:href="#b" width="854" height="843.9" transform="scale(-1 1) rotate(21 -10 -1032.2)"/>
    <g id="b" stroke-dasharray="none" stroke-miterlimit="4" stroke-width="1" display="inline">
      <path fill="#d3a034" stroke="#000" d="M295.2 578.4s1.5-3.3 1.2-4.9c-.5-3.6-1.3-8.3-1.2-11.3.2-4.1.5-10.4 2.7-14.1 6.8 7.2 9.4 25.1-2.7 30.3z" display="inline"/>
      <path d="m744.8 63.9.7.1c-2.2 6.2-4.8 11.7-4 18.6-2.8-5.6 1.4-14 3.3-18.7z" color="#000" display="inline" font-family="Sans" font-weight="400" overflow="visible" style="text-indent:0;text-align:start;line-height:normal;text-transform:none;block-progression:tb;marker:none;-inkscape-font-specification:Sans" transform="scale(-1 1) rotate(-13 2376.2 4903.8)"/>
    </g>
    <use xlink:href="#c" width="854" height="843.9" transform="rotate(7.9 261.2 518.8)"/>
    <g id="c" stroke-dasharray="none" stroke-miterlimit="4" stroke-width="1" display="inline">
      <path fill="#d3a034" stroke="#000" d="M310.8 564.7s0-3.6-.8-5c-2-3.1-4.5-7-5.6-9.9a33.7 33.7 0 0 1-3.2-14c9.1 4 18.6 19.4 9.6 29z" display="inline"/>
      <path d="m744.8 63.9.7.1c-2.2 6.2-4.8 11.7-4 18.6-2.8-5.6 1.4-14 3.3-18.7z" color="#000" display="inline" font-family="Sans" font-weight="400" overflow="visible" style="text-indent:0;text-align:start;line-height:normal;text-transform:none;block-progression:tb;marker:none;-inkscape-font-specification:Sans" transform="matrix(-.98 .18 .18 .98 1025.4 342.9)"/>
    </g>
    <path fill="#d3a034" stroke="#000" d="m219 522.2 7 3.2c-.4 4.4-1 8.4.6 12.4 1.4 3.5 7.8 9.5 8.6 14.9.6 4.6-.8 10.5-4.7 12.5 0 0 2-7.9-.4-11-3.6-4.4-9.2-7.7-11.8-13-2.5-5.3-1.5-13.2.6-19zM321.3 534.1l-11.6 3.8c.3 4.4 5.2 9.7 3.5 13.6-1.5 3.5-8 9.2-9 14.6-.9 4.6.4 10.5 4.2 12.7 0 0-2.1-9.3.4-12.3 3.7-4.3 8.7-7.7 11.4-13a28 28 0 0 0 1.1-19.4zM232.4 571.8s2.2-2.8 2.4-4.4c.3-3.7.7-8.4 1.6-11.3 1-4 2.9-10 5.9-13.1 4.9 8.7 3.1 26.7-9.9 28.8z"/>
    <path fill="#d3a034" stroke="#000" d="M226.8 569s-.3-3.6.4-5c1.6-3.3 3.8-7.5 4.6-10.4 1.2-4 2.9-10 2-14.2-8.8 4.7-16.9 21-7 29.6z"/>
    <path d="M226.9 222.7h-.7c.2 6.5 1 12.6-1.7 18.9 4.3-4.5 2.8-13.8 2.4-18.9z" color="#000" font-family="Sans" font-weight="400" overflow="visible" style="text-indent:0;text-align:start;line-height:normal;text-transform:none;block-progression:tb;marker:none;-inkscape-font-specification:Sans" transform="scale(-1 1) rotate(-22.6 799.7 1527.2)"/>
    <path fill="#d3a034" stroke="#000" d="M227 573s1.9-3.2 1.8-4.8c-.1-3.7-.3-8.4.1-11.3.7-4.1 1.7-10.4 4.3-13.8 6 8 6.4 26-6.2 29.8z"/>
    <path d="M226.9 222.7h-.7c.2 6.5 1 12.6-1.7 18.9 4.3-4.5 2.8-13.8 2.4-18.9z" color="#000" font-family="Sans" font-weight="400" overflow="visible" style="text-indent:0;text-align:start;line-height:normal;text-transform:none;block-progression:tb;marker:none;-inkscape-font-specification:Sans" transform="rotate(2.2 -8303.3 565.8)"/>
    <use xlink:href="#d" width="854" height="843.9" transform="matrix(-.9 -.45 -.45 .9 744.7 172)"/>
    <path fill="#d3a034" stroke="#000" d="M238.6 578.2s2.7-2.3 3.1-3.9c1-3.5 2.4-8 3.7-10.7 1.9-3.7 4.8-9.4 8.3-11.8 3.2 9.4-2 26.8-15.1 26.4z"/>
    <path d="M226.9 222.7h-.7c.2 6.5 1 12.6-1.7 18.9 4.3-4.5 2.8-13.8 2.4-18.9z" color="#000" font-family="Sans" font-weight="400" overflow="visible" style="text-indent:0;text-align:start;line-height:normal;text-transform:none;block-progression:tb;marker:none;-inkscape-font-specification:Sans" transform="rotate(20.3 -691.6 461.7)"/>
    <path fill="#d3a034" stroke="#000" d="M256.2 589.7s1.7-3.1 1.6-4.7c-.2-3.7-.6-8.5-.3-11.4a47 47 0 0 1 7.2-15.3c6.2 7.7 4 27.2-8.5 31.4z"/>
    <path d="M226.9 222.7h-.7c.2 6.5 1 12.6-1.7 18.9 4.3-4.5 2.8-13.8 2.4-18.9z" color="#000" font-family="Sans" font-weight="400" overflow="visible" style="text-indent:0;text-align:start;line-height:normal;text-transform:none;block-progression:tb;marker:none;-inkscape-font-specification:Sans" transform="translate(35.1 342)"/>
    <path fill="#d3a034" stroke="#000" d="M254.8 587s-.6-3.5 0-5c1.5-3.4 3.3-7.8 4-10.7.8-4 2.1-10.2 1-14.3-8.5 5.3-15.4 22-5 30z"/>
    <path d="M226.9 222.7h-.7c.2 6.5 1 12.6-1.7 18.9 4.3-4.5 2.8-13.8 2.4-18.9z" color="#000" font-family="Sans" font-weight="400" overflow="visible" style="text-indent:0;text-align:start;line-height:normal;text-transform:none;block-progression:tb;marker:none;-inkscape-font-specification:Sans" transform="matrix(-.95 -.32 -.32 .95 543.8 423.4)"/>
    <path fill="#d3a034" stroke="#000" d="M221.7 560.4s-.2-3.6.6-5c2-3.1 4.4-7.2 5.4-10 1.4-3.8 3.5-9.8 2.9-14-9 4-18.2 19.7-9 29z"/>
    <path d="m227.6 535.4.7.3c-3.1 5.7-6.6 10.8-7 17.7-1.8-6 3.7-13.5 6.3-18z" color="#000" font-family="Sans" font-weight="400" overflow="visible" style="text-indent:0;text-align:start;line-height:normal;text-transform:none;block-progression:tb;marker:none;-inkscape-font-specification:Sans"/>
    <path fill="#d3a034" stroke="#000" d="M323.7 552.6s.7-3.5.1-5c-1.3-3.5-3-7.9-3.6-10.8-.7-4-1.8-10.3-.5-14.4 8.2 5.6 14.7 22.5 4 30.2z"/>
    <path d="m744.8 63.9.7.1c-2.2 6.2-4.8 11.7-4 18.6-2.8-5.6 1.4-14 3.3-18.7z" color="#000" font-family="Sans" font-weight="400" overflow="visible" style="text-indent:0;text-align:start;line-height:normal;text-transform:none;block-progression:tb;marker:none;-inkscape-font-specification:Sans" transform="matrix(-1 0 0 1 1067.1 468.4)"/>
    <path fill="#d3a034" stroke="#000" d="M340 534.8s-2-3-3.4-3.8c-3.3-1.6-7.6-3.6-10-5.4a33.7 33.7 0 0 1-10.2-10c9.8-1.7 26 6.3 23.5 19.2z"/>
    <path d="m744.8 63.9.7.1c-2.2 6.2-4.8 11.7-4 18.6-2.8-5.6 1.4-14 3.3-18.7z" color="#000" font-family="Sans" font-weight="400" overflow="visible" style="text-indent:0;text-align:start;line-height:normal;text-transform:none;block-progression:tb;marker:none;-inkscape-font-specification:Sans" transform="matrix(-.73 .68 .68 .73 823.9 -35.9)"/>
    <path fill="#d3a034" stroke="#000" d="M329.9 504.5c1.3.7 3.7 1 5.2 1 1.3-.1 3.6-1.2 3.6-1.2s-4.1-1-5.5-3.4c-2.1-3.8-1.2-5.3-5-9.2-6-6.2-17 1.7-21.1.2-1.5 6.6 17.8 10 22.8 12.6z"/>
    <path fill="#d3a034" stroke="#000" d="m305.8 472.1 3.7 5.8c3.4 2.9 6.9 2.8 8.5 6.8 2.6 8.4-1 18.4 8.8 20.6-5.4-10-.7-13.8-3.5-22.6-1.8-5.6-11-10.5-17.5-10.6z"/>
    <path fill="#d3a034" stroke="#000" d="M307.4 481.3c1 1.1 3 2.4 4.4 3 1.2.5 3.7.4 3.7.4s-3-2.3-3-3.9c-.5-3.7.1-9.1-1.8-14.2-3-8.1-9.9-7.7-14.8-11.5-4 5.5 8 21.7 11.5 26.2zM333.2 513.2c1.4.2 3.8-.3 5.2-.8 1.2-.5 3-2.2 3-2.2s-3.5 0-5-.8c-4.5-2.5-5.5-9.4-10.3-11.8-7.8-4-15.9 1.8-20.2 1.6.8 6.8 21.7 13 27.3 14z"/>
    <path fill="#d3a034" stroke="#000" d="M316.3 498.5c1 1 3.4 1.8 4.8 2.1 1.3.3 3.8-.2 3.8-.2s-3.3-1.8-3.8-3.3c-1-3.5.6-7.4-2.2-12-4.4-7.5-10.4-7.1-18-8-3 6 11.2 17.5 15.4 21.4zM342.3 518s-3.6-.5-4.8-1.5c-3-2.3-6.6-5.3-9.2-6.7-3.6-2-9.2-4.9-13.5-4.9 2.8 9.6 17 20.9 27.5 13z"/>
    <path d="m744.8 63.9.7.1c-2.2 6.2-4.8 11.7-4 18.6-2.8-5.6 1.4-14 3.3-18.7z" color="#000" font-family="Sans" font-weight="400" overflow="visible" style="text-indent:0;text-align:start;line-height:normal;text-transform:none;block-progression:tb;marker:none;-inkscape-font-specification:Sans" transform="rotate(-72.6 834.2 576.3)"/>
    <path fill="#d3a034" stroke="#000" d="M321 543.7s-1-3.5-2.1-4.6c-2.8-2.5-6.3-5.6-8.1-8a33.7 33.7 0 0 1-7-12.6c10 1.3 23.3 13.5 17.2 25.2z"/>
    <path d="m744.8 63.9.7.1c-2.2 6.2-4.8 11.7-4 18.6-2.8-5.6 1.4-14 3.3-18.7z" color="#000" font-family="Sans" font-weight="400" overflow="visible" style="text-indent:0;text-align:start;line-height:normal;text-transform:none;block-progression:tb;marker:none;-inkscape-font-specification:Sans" transform="matrix(-.9 .44 .44 .9 947.8 135.2)"/>
    <path fill="#d3a034" stroke="#000" d="M318.7 548.4s-1.2-3.4-2.5-4.3c-3-2.3-6.7-5.1-8.7-7.3-2.8-3-7-7.8-8-12 10 .4 24.3 11.5 19.2 23.6z"/>
    <path d="m744.4 64.9.7.1c-2.2 6.2-4.8 11.8-4 18.6-2.8-5.5 1.5-14 3.3-18.7z" color="#000" font-family="Sans" font-weight="400" overflow="visible" style="text-indent:0;text-align:start;line-height:normal;text-transform:none;block-progression:tb;marker:none;-inkscape-font-specification:Sans" transform="matrix(-.86 .52 .52 .86 907.3 86.8)"/>
    <path fill="#d3a034" stroke="#000" d="M332.9 530.6s-3.5-1.2-4.5-2.4c-2.3-2.9-5.2-6.6-7.5-8.5-3.1-2.7-8-6.8-12.2-7.7.7 10 12.2 24 24.2 18.6z"/>
    <path d="m744.8 63.9.7.1c-2.2 6.2-4.8 11.7-4 18.6-2.8-5.6 1.4-14 3.3-18.7z" color="#000" font-family="Sans" font-weight="400" overflow="visible" style="text-indent:0;text-align:start;line-height:normal;text-transform:none;block-progression:tb;marker:none;-inkscape-font-specification:Sans" transform="rotate(-60.4 916.7 662.2)"/>
    <path fill="#d3a034" stroke="#000" d="M325.9 520.5s-2.9-2.2-3.5-3.6c-1.3-3.5-3-8-4.5-10.5a33.7 33.7 0 0 0-9.2-11c-2.4 9.6 4.1 26.5 17.2 25z"/>
    <path d="m744.8 63.9.7.1c-2.2 6.2-4.8 11.7-4 18.6-2.8-5.6 1.4-14 3.3-18.7z" color="#000" font-family="Sans" font-weight="400" overflow="visible" style="text-indent:0;text-align:start;line-height:normal;text-transform:none;block-progression:tb;marker:none;-inkscape-font-specification:Sans" transform="rotate(-42.4 1090.3 842.8)"/>
    <path fill="#d3a034" stroke="#000" d="M328.5 508s-3.3-1.4-4.2-2.7c-2.1-3-4.8-7-6.9-9.1-2.9-3-7.4-7.4-11.5-8.6 0 10 10.2 24.9 22.6 20.4z"/>
    <path d="m744.8 63.9.7.1c-2.2 6.2-4.8 11.7-4 18.6-2.8-5.6 1.4-14 3.3-18.7z" color="#000" font-family="Sans" font-weight="400" overflow="visible" style="text-indent:0;text-align:start;line-height:normal;text-transform:none;block-progression:tb;marker:none;-inkscape-font-specification:Sans" transform="rotate(-55.9 930 689.2)"/>
    <path fill="#d3a034" stroke="#000" d="M319.5 548.9s-3.3-1.4-4.2-2.7c-2-3-4.7-7-6.8-9.1-3-3-7.5-7.4-11.6-8.6 0 10 10.2 24.8 22.6 20.4z"/>
    <path d="m744.8 63.9.7.1c-2.2 6.2-4.8 11.7-4 18.6-2.8-5.6 1.4-14 3.3-18.7z" color="#000" font-family="Sans" font-weight="400" overflow="visible" style="text-indent:0;text-align:start;line-height:normal;text-transform:none;block-progression:tb;marker:none;-inkscape-font-specification:Sans" transform="rotate(-55.9 964.1 718)"/>
    <path fill="#d3a034" stroke="#000" d="M299.7 559s.3-3.7-.4-5c-1.7-3.4-3.9-7.6-4.7-10.4-1.2-4-3-10-2.1-14.3 8.8 4.7 17 20.8 7.2 29.6z"/>
    <path d="m744.8 63.9.7.1c-2.2 6.2-4.8 11.7-4 18.6-2.8-5.6 1.4-14 3.3-18.7z" color="#000" font-family="Sans" font-weight="400" overflow="visible" style="text-indent:0;text-align:start;line-height:normal;text-transform:none;block-progression:tb;marker:none;-inkscape-font-specification:Sans" transform="matrix(-1 .1 .1 1 1029.9 395.7)"/>
    <path fill="#d3a034" stroke="#000" d="M292.3 566s.6-3.5 0-5c-1.5-3.4-3.4-7.7-4-10.6-.9-4-2.2-10.3-1-14.4 8.4 5.3 15.4 22 5 30z"/>
    <path d="m744.8 63.9.7.1c-2.2 6.2-4.8 11.7-4 18.6-2.8-5.6 1.4-14 3.3-18.7z" color="#000" font-family="Sans" font-weight="400" overflow="visible" style="text-indent:0;text-align:start;line-height:normal;text-transform:none;block-progression:tb;marker:none;-inkscape-font-specification:Sans" transform="matrix(-1 .02 .02 1 1032.7 458.7)"/>
    <path fill="#d3a034" stroke="#000" d="M293.2 582.3s-2.6-2.5-3-4c-.8-3.7-1.7-8.3-2.9-11a33.7 33.7 0 0 0-7.5-12.4c-3.8 9.2.2 27 13.4 27.4z"/>
    <path d="m744.8 63.9.7.1c-2.2 6.2-4.8 11.7-4 18.6-2.8-5.6 1.4-14 3.3-18.7z" color="#000" font-family="Sans" font-weight="400" overflow="visible" style="text-indent:0;text-align:start;line-height:normal;text-transform:none;block-progression:tb;marker:none;-inkscape-font-specification:Sans" transform="rotate(-33.9 1325.9 1073)"/>
    <path fill="#d3a034" stroke="#000" d="M285 570.6s.6-3.5 0-5c-1.4-3.4-3.3-7.8-4-10.7-.8-4-2-10.2-.9-14.3 8.4 5.3 15.4 22 5 30z"/>
    <path d="m744.8 63.9.7.1c-2.2 6.2-4.8 11.7-4 18.6-2.8-5.6 1.4-14 3.3-18.7z" color="#000" font-family="Sans" font-weight="400" overflow="visible" style="text-indent:0;text-align:start;line-height:normal;text-transform:none;block-progression:tb;marker:none;-inkscape-font-specification:Sans" transform="matrix(-1 .02 .02 1 1025.5 463.3)"/>
    <path fill="#d3a034" stroke="#000" d="M249.5 569.5s2.3-2.8 2.4-4.4c.4-3.7.7-8.5 1.5-11.3 1.2-4 3-10 6-13.2 4.9 8.7 3.1 26.7-9.9 28.9z"/>
    <path d="m744.9 64.2.7.1c-2.2 6.2-4.8 11.7-4 18.6-2.8-5.6 1.4-14 3.3-18.7z" color="#000" font-family="Sans" font-weight="400" overflow="visible" style="text-indent:0;text-align:start;line-height:normal;text-transform:none;block-progression:tb;marker:none;-inkscape-font-specification:Sans" transform="matrix(-.9 -.45 -.45 .9 953.8 822.7)"/>
    <path fill="#d3a034" stroke="#000" d="M266 575.2s-.9-3.5-.3-5c1.2-3.5 2.8-8 3.3-10.8.7-4.1 1.6-10.4.2-14.4-8.1 5.7-14.1 22.8-3.2 30.2z"/>
    <path d="m744 63.2.6.1c-2.2 6.2-4.8 11.8-4 18.6-2.8-5.5 1.5-14 3.3-18.7z" color="#000" font-family="Sans" font-weight="400" overflow="visible" style="text-indent:0;text-align:start;line-height:normal;text-transform:none;block-progression:tb;marker:none;-inkscape-font-specification:Sans" transform="rotate(-1.8 15764.8 15266.9)"/>
    <path fill="#d3a034" stroke="#000" d="M247.7 533.8c1 4.8.3 11-1.8 15.5-.6 1.4-1.9 3.3-3 4.2-1.1.8-2.6 1.3-2.6 1.3s1-1.6 1.2-3.2c.2-1.7-.3-4.6-.3-6.3-.1-2 .1-4 .7-5.8l3.2-8.8s2.3 1.7 2.6 3.1z"/>
    <path d="m759.1 5.7-.3.6s7.9 4 9.5 5.3l4 3.1c.2-1-2.8-3-3.5-3.7-1.8-1.4-9.7-5.3-9.7-5.3z" color="#000" font-family="Sans" font-weight="400" overflow="visible" style="text-indent:0;text-align:start;line-height:normal;text-transform:none;block-progression:tb;marker:none;-inkscape-font-specification:Sans" transform="rotate(63 72.2 -150.3)"/>
    <path fill="#d3a034" stroke="#000" d="M253.1 540.2c1.7 4.6 1.7 9.4.3 14.1-.4 1.4-3.2 5.5-4.2 6.5s-2.4 1.6-2.4 1.6.9-1.7.8-3.3c0-1.7-.9-4.5-1.2-6.2-.3-2-.4-4 0-5.9l2-9s5.5 3.4 4.7 2.2z"/>
    <path d="m759.1 5.7-.3.6s7.9 4 9.5 5.3l4 3.1c.2-1-2.8-3-3.5-3.7-1.8-1.4-9.7-5.3-9.7-5.3z" color="#000" font-family="Sans" font-weight="400" overflow="visible" style="text-indent:0;text-align:start;line-height:normal;text-transform:none;block-progression:tb;marker:none;-inkscape-font-specification:Sans" transform="rotate(55.3 -5.3 -213.9)"/>
    <path fill="#d3a034" stroke="#000" d="m233.7 525.9 7.6 2.2c.2 4.4-5.6 9.7-3.5 13.5 2 3.2 7.7 8.2 9.3 13.4 1.3 4.5.8 10.5-2.8 13 0 0 1-8-2-10.7-4.2-3.9-7-6-10.9-10.5-4.8-5.6-1.6-18 2.3-21z"/>
    <path fill="#d3a034" stroke="#000" d="M236 521.2c-3.5 5.8-7.7 16.7-2 24 0 0-.2-2 .4-3.5.6-1.6 1.4-4 2.3-5.5a16 16 0 0 0 2-5.5c.6-3 2.4-9 2.4-9s-6.2.3-5-.5z"/>
    <path fill="#d3a034" stroke="#000" d="M238.8 527.3a27.3 27.3 0 0 0-2.5 15.4c.2 1.5 1 3.8 1.9 5 .8 1 2.1 1.8 2.1 1.8s-.6-1.8-.3-3.4c.2-1.7 1.5-4.3 2-6 .6-1.8 1-3.8.8-5.8l-.6-9.2s-2.7 1-3.4 2.2z"/>
    <path d="m759.1 5.7-.3.6s7.9 4 9.5 5.3l4 3.1c.2-1-2.8-3-3.5-3.7-1.8-1.4-9.7-5.3-9.7-5.3z" color="#000" font-family="Sans" font-weight="400" overflow="visible" style="text-indent:0;text-align:start;line-height:normal;text-transform:none;block-progression:tb;marker:none;-inkscape-font-specification:Sans" transform="matrix(-.68 .74 .74 .68 751.4 -35.6)"/>
    <path fill="#d3a034" stroke="#000" d="M229.2 534.5c-.8 1.2-3.5 2.6-4.8 3.2-1.2.6-3.7.6-3.7.6s3-2.7 3.5-4.2c1.3-3.9-2-12.6-.3-17.7 2.6-8.3 11.7-11.6 14.6-14.8 4.3 5.3-6 28.3-9.3 33z"/>
    <path d="m192.1 166.4.7.3c-3 5.8-6.3 11-6.4 17.9-2-5.9 3.2-13.7 5.7-18.2z" color="#000" font-family="Sans" font-weight="400" overflow="visible" style="text-indent:0;text-align:start;line-height:normal;text-transform:none;block-progression:tb;marker:none;-inkscape-font-specification:Sans" transform="translate(41.9 346.8)"/>
    <path fill="#d3a034" stroke="#000" d="m236 495.3.7 6.6c-3.9 2-7.5 3.8-10 7.4-2 3-3.8 12.2-6 15a9 9 0 0 1-7.5 3.3s2.3-1.4 3.4-5.2c1.7-5.4-1-6.8 2.5-14.7 2.4-5.3 10.9-10.9 16.9-12.4z"/>
    <path fill="#d3a034" stroke="#000" d="m236.7 500.5 1.4 6.4c-3.6 2.5-7 4.6-9 8.4-3.5 8.2-3.4 18-13.5 19.3 6.9-6.2 5-16.2 8-23a22 22 0 0 1 13-11.1zM226.2 484.2c-.8 1.1-3 2.4-4.3 3-1.2.5-3.7.4-3.7.4s2.9-2.3 3-3.9c.5-3.7-.1-9.1 1.7-14.2 3-8.1 10-7.7 14.9-11.5 4 5.5-8.1 21.7-11.6 26.2z"/>
    <path fill="#d3a034" stroke="#000" d="M220.8 493.2c-1.2.8-3.5 1.4-5 1.6-1.3.1-3.7-.7-3.7-.7s3.5-1.3 4.1-2.8c1.5-3.4 1-9.3 4.2-13.6 5.2-6.9 14.9-7 18.7-9.1 2.3 6.3-13.7 21.2-18.3 24.6z"/>
    <path fill="#d3a034" stroke="#000" d="M224 506.7c-.9 1-3.7 2.2-5 2.6-1.4.5-3.8.3-3.8.3s3-2.2 3.3-3.7c.7-3.7 0-13 2-17.9 3.6-8 13-10.3 16.2-13.1 3.7 5.6-9 27.5-12.6 31.8z"/>
    <path fill="#d3a034" stroke="#000" d="M223.8 504.9c-1.4 0-3.8-.7-5.1-1.3-1.2-.6-2.8-2.5-2.8-2.5s3.7.7 5-.3c3-2.1 5.6-7.3 10.6-9.3 8-3.2 16.4 1.6 20.7 1.9-1.3 6.6-22.7 11-28.4 11.5zM282.8 533.8c-1 4.8-.3 11 1.8 15.5.6 1.4 1.9 3.3 3 4.2 1.1.8 2.6 1.3 2.6 1.3s-1-1.6-1.2-3.2c-.2-1.7.3-4.6.3-6.3.1-2-.1-4-.7-5.8l-3.2-8.8s-2.3 1.7-2.6 3.1z"/>
    <path d="m759.1 5.7-.3.6s7.9 4 9.5 5.3l4 3.1c.2-1-2.8-3-3.5-3.7-1.8-1.4-9.7-5.3-9.7-5.3z" color="#000" font-family="Sans" font-weight="400" overflow="visible" style="text-indent:0;text-align:start;line-height:normal;text-transform:none;block-progression:tb;marker:none;-inkscape-font-specification:Sans" transform="matrix(-.45 .9 .9 .45 625 -146.3)"/>
    <path fill="#d3a034" stroke="#000" d="M277.4 540.2a22.5 22.5 0 0 0-.3 14.1c.4 1.4 3.2 5.5 4.2 6.5s2.4 1.6 2.4 1.6-.9-1.7-.8-3.3c0-1.7.9-4.5 1.2-6.2.3-2 .4-4 0-5.9l-2-9s-5.6 3.4-4.7 2.2z"/>
    <path d="m759.1 5.7-.3.6s7.9 4 9.5 5.3l4 3.1c.2-1-2.8-3-3.5-3.7-1.8-1.4-9.7-5.3-9.7-5.3z" color="#000" font-family="Sans" font-weight="400" overflow="visible" style="text-indent:0;text-align:start;line-height:normal;text-transform:none;block-progression:tb;marker:none;-inkscape-font-specification:Sans" transform="matrix(-.57 .82 .82 .57 708.7 -88)"/>
    <path fill="#d3a034" stroke="#000" d="M294.4 521.2c3.6 5.8 7.8 16.7 2 24 0 0 .3-2-.3-3.5-.6-1.6-1.4-4-2.3-5.5a16 16 0 0 1-2-5.5c-.6-3-2.4-9-2.4-9s6.2.3 5-.5z"/>
    <path fill="#d3a034" stroke="#000" d="M291.7 527.3a27.3 27.3 0 0 1 2.5 15.4c-.2 1.5-1 3.8-1.9 5-.8 1-2.1 1.8-2.1 1.8s.6-1.8.3-3.4c-.3-1.7-1.5-4.3-2-6a16 16 0 0 1-.8-5.8l.6-9.2s2.7 1 3.4 2.2z"/>
    <path d="m759.1 5.7-.3.6s7.9 4 9.5 5.3l4 3.1c.2-1-2.8-3-3.5-3.7-1.8-1.4-9.7-5.3-9.7-5.3z" color="#000" font-family="Sans" font-weight="400" overflow="visible" style="text-indent:0;text-align:start;line-height:normal;text-transform:none;block-progression:tb;marker:none;-inkscape-font-specification:Sans" transform="rotate(47.4 -69.9 -269.6)"/>
    <path fill="#d3a034" stroke="#000" d="M309.8 538.3c-8.2-6.9-1-14.4-3.2-22-2.7-8.2-11.7-11.5-14.6-14.7-2 9 4.5 38 17.8 36.7z"/>
    <path d="m192.1 166.4.7.3c-3 5.8-6.3 11-6.4 17.9-2-5.9 3.2-13.7 5.7-18.2z" color="#000" font-family="Sans" font-weight="400" overflow="visible" style="text-indent:0;text-align:start;line-height:normal;text-transform:none;block-progression:tb;marker:none;-inkscape-font-specification:Sans" transform="matrix(-1 0 0 1 488.6 346.8)"/>
    <path fill="#d3a034" stroke="#000" d="m294.5 495.3-.7 6.6c3.9 2 7.5 3.8 10 7.4 2 3 3.8 12.2 6 15a9 9 0 0 0 7.5 3.3s-2.3-1.4-3.4-5.2c-1.7-5.4 1-6.8-2.5-14.7-2.4-5.3-10.9-10.9-16.9-12.4z"/>
    <path fill="#d3a034" stroke="#000" d="m293.8 500.5-1.4 6.4c3.6 2.5 8.3 4.2 10 8.2 3.7 8 1 19.3 12.5 19.5-6.9-6.2-5-16.2-8-23a22 22 0 0 0-13-11.1zM304.3 484.2c.8 1.1 3 2.4 4.3 3 1.2.5 3.7.4 3.7.4s-3-2.3-3-3.9c-.5-3.7.1-9.1-1.7-14.2-3-8.1-10-7.7-14.9-11.5-4 5.5 8.1 21.7 11.6 26.2z"/>
    <path fill="#d3a034" stroke="#000" d="M309.7 493.2c1.2.8 3.5 1.4 5 1.6 1.3.1 3.7-.7 3.7-.7s-3.5-1.3-4.1-2.8c-1.5-3.4-1-9.3-4.2-13.6-5.3-6.9-14.9-7-18.7-9.1-2.3 6.3 13.7 21.2 18.3 24.6z"/>
    <path fill="#d3a034" stroke="#000" d="M306.4 506.7c1 1 3.8 2.2 5.2 2.6 1.2.5 3.7.3 3.7.3s-3-2.2-3.3-3.7c-.7-3.7 0-13-2-17.9-3.6-8-13-10.3-16.2-13.1-3.7 5.6 9 27.5 12.6 31.8z"/>
    <path fill="#d3a034" stroke="#000" d="M306.7 504.9c1.4 0 3.8-.7 5.1-1.3 1.2-.6 2.8-2.5 2.8-2.5s-3.7.7-5-.3c-3-2.1-5.6-7.3-10.6-9.3-8-3.2-16.4 1.6-20.7 1.9 1.3 6.6 22.7 11 28.4 11.5zM309.7 493.2c1.2.8 3.5 1.4 5 1.6 1.3.1 3.7-.7 3.7-.7s-3.5-1.3-4.1-2.8c-1.5-3.4-1-9.3-4.2-13.6-5.3-6.9-14.9-7-18.7-9.1-2.3 6.3 13.7 21.2 18.3 24.6zM231 446.6s2.8 1 5.1 3.8c2.4 2.8 5.6 7.9 7.8 9.9 3 2.6 5 6 9.1 7.3.4-10-13.1-23.8-22-21zM298.7 446.6s-2.8 1.1-5.1 3.8c-2.4 2.8-5.7 7.9-7.9 9.9-2.9 2.6-5 6-9 7.3-.4-10 13.1-23.8 22-21z"/>
    <path fill="#d3a034" stroke="#000" d="M279.8 443.5c-1.4 3.5-4.4 8.6-5.2 11.5-1 3.8-3 7.2-2.4 11.4 9-4.2 16.4-25.5 8.3-27.3 0 0 .7 1.1-.7 4.4zM277.4 438.5s-4-2.1-4.2 1.5c-.1 3.7.5 9.6 0 12.5-.7 4-.2 7.8-2.6 11.4a53 53 0 0 1-.6-25.4 3.8 3.8 0 0 1 7.4 0zM255.7 437.3s4 1.7 3.6 5c-.5 3.6-.6 9.3-.2 12.3.5 3.9-.4 7.9 1.9 11.5 4.5-5 5.9-18.2 3-24.2a8.4 8.4 0 0 0-8.3-4.6z"/>
    <path fill="#d3a034" stroke="#000" d="M244.2 441.3s3.6.3 3.9 2.7c.5 3.7 2 9.5 3.1 12.2 1.7 3.6 2.2 7.5 5.4 10.4 4.3-9-3.1-32.6-12.4-25.3zM273.5 461.9c2.9-4 4.8-10 4.8-14.9 0-1.4-.4-3.8-1.1-5a9.7 9.7 0 0 0-1.8-2.3s.3 2-.2 3.4c-.5 1.7-2.2 4-3 5.6a16 16 0 0 0-1.6 5.6l-.8 9.3s2.8-.6 3.7-1.7z"/>
    <path d="m762.8 7.4-.3.6a59.4 59.4 0 0 0 9.8 6.7c.2-1-2.8-3-3.5-3.7-1.8-1.4-6-3.6-6-3.6z" color="#000" font-family="Sans" font-weight="400" overflow="visible" style="text-indent:0;text-align:start;line-height:normal;text-transform:none;block-progression:tb;marker:none;-inkscape-font-specification:Sans" transform="matrix(.78 -.62 -.62 -.78 -319.8 939)"/>
    <path fill="#d3a034" stroke="#000" d="M258.6 461.9c-2.9-4-4.8-10-4.8-14.9 0-1.4.4-3.8 1-5a9.7 9.7 0 0 1 1.9-2.3s-.3 2 .2 3.4c.5 1.7 2.1 4 2.9 5.6a16 16 0 0 1 1.7 5.6l.8 9.3s-2.8-.6-3.7-1.7z"/>
    <path d="m762.8 7.4-.3.6a59.4 59.4 0 0 0 9.8 6.7c.2-1-2.8-3-3.5-3.7-1.8-1.4-6-3.6-6-3.6z" color="#000" font-family="Sans" font-weight="400" overflow="visible" style="text-indent:0;text-align:start;line-height:normal;text-transform:none;block-progression:tb;marker:none;-inkscape-font-specification:Sans" transform="rotate(-141.5 589.9 320.8)"/>
    <path fill="#d3a034" stroke="#000" d="M280.5 463.7c6.7-5 13.7-18.7 6.4-23.8 0 0 1.2 2.7-.3 4.5-3.3 3.8-5.2 4.1-7 6-3.2 3.5-4.2 7.2-4.5 13.4 0 0 4.2.7 5.4-.1z"/>
    <path d="m233.1 141.7-.5.4c1 3 2.5 5.1 3.9 6.9 1.6 2 3.7 3.4 4.5 4.8 1 1.5 1.2 3 1.8 5 0-2.1-.3-4.5-1.4-6-1.6-2-3.5-3.3-4.8-5.3-1.2-2-2.6-4.1-3.5-5.8z" color="#000" font-family="Sans" font-weight="400" overflow="visible" style="text-indent:0;text-align:start;line-height:normal;text-transform:none;block-progression:tb;marker:none;-inkscape-font-specification:Sans" transform="matrix(1 .1 .1 -1 28.7 578)"/>
    <path fill="#d3a034" stroke="#000" d="M255.9 457.7c-3-7.7-10.8-16.2-19.3-13.5 0 0 2.8.9 4.2 2.8 2.8 4.2 2.6 6.1 4 8.3 2.5 4 3.9 8.6 9.8 10.6 0 0 1.8-6.8 1.3-8.2z"/>
    <path d="m233.1 141.7-.5.4c1 3 2.5 5.1 3.9 6.9 1.6 2 3.7 3.4 4.5 4.8 1 1.5 1.2 3 1.8 5 0-2.1-.3-4.5-1.4-6-1.6-2-3.5-3.3-4.8-5.3-1.2-2-2.6-4.1-3.5-5.8z" color="#000" font-family="Sans" font-weight="400" overflow="visible" style="text-indent:0;text-align:start;line-height:normal;text-transform:none;block-progression:tb;marker:none;-inkscape-font-specification:Sans" transform="matrix(.37 -.93 -.93 -.37 302.2 731)"/>
    <path fill="#d3a034" stroke="#000" d="M269 458.8c7.3-17.7-2.5-25.4-7.5-25 4 4.7 1.8 9 .2 15.2-1.1 4.6-.2 7 2.6 12.6 0 0 4-1.5 4.6-2.8z"/>
    <path d="m234 140.6-.5.4c1 3 1.9 5.9 3.3 7.6 1.6 2 3.4 3.8 4.2 5.2 1 1.5 1.2 3 1.8 5 0-2.1-.3-4.5-1.4-6-1.6-2-3.2-3.7-4.5-5.7-1.2-2-2-4.8-2.8-6.5z" color="#000" font-family="Sans" font-weight="400" overflow="visible" style="text-indent:0;text-align:start;line-height:normal;text-transform:none;block-progression:tb;marker:none;-inkscape-font-specification:Sans" transform="matrix(.92 -.4 -.4 -.92 105 681.6)"/>
    <path fill="#d3a034" stroke="#000" d="M248.4 466.8c1-9.6-4.4-17.9-21-18 7.4 11.2-2.5 18.5 21 18z"/>
    <path fill="#1a1a1a" d="M201.6 118.5a5 5 0 0 0-2.7-1.7c-4.2-.8-5.3-2.3-5.5-6.1-2.5-1-3.5-2.8-3.6-4.8 0 0 2 1.8 3.2 2.2.8.3 2.5.8 4 1.6 2 .9 2.3 3 3.2 5 .3.6 1 1.1 1.6 1.8.5.5.8 1.2 1 1.8.1.8-.1 1.7-.1 1.7l-1-1.5z" color="#000" font-family="Sans" font-weight="400" overflow="visible" style="text-indent:0;text-align:start;line-height:normal;text-transform:none;block-progression:tb;marker:none;-inkscape-font-specification:Sans" transform="translate(41.9 346.8)"/>
    <path fill="#d3a034" stroke="#000" d="M280.4 467.8c0-12.7 6-18.9 22.7-19-7.4 11.2 3.2 20.9-22.7 19z"/>
    <path fill="#1a1a1a" d="M245.6 112.3a5 5 0 0 1 2.5-2c4.1-1.2 5-2.8 4.9-6.7 2.3-1.3 3-3.1 3-5.1 0 0-1.8 2-3 2.5l-3.8 2c-1.8 1.2-2 3.2-2.6 5.3-.2.7-1 1.3-1.4 2-.4.6-.6 1.3-.7 2l.2 1.6s.3-.7 1-1.6z" color="#000" font-family="Sans" font-weight="400" overflow="visible" style="text-indent:0;text-align:start;line-height:normal;text-transform:none;block-progression:tb;marker:none;-inkscape-font-specification:Sans" transform="translate(42 352.8)"/>
    <path fill="#d3a034" stroke="#000" d="M227.8 472.1s3.3-1.2 4.9-.9c3.6.8 8.2 1.8 11.2 1.9 4.1 0 10.5.2 14.3-1.8-6.8-7.2-24.5-11-30.4.8z"/>
    <path d="m744.8 63.9.7.1c-2.2 6.2-4.8 11.7-4 18.6-2.8-5.6 1.4-14 3.3-18.7z" color="#000" font-family="Sans" font-weight="400" overflow="visible" style="text-indent:0;text-align:start;line-height:normal;text-transform:none;block-progression:tb;marker:none;-inkscape-font-specification:Sans" transform="rotate(80.5 259.5 -23.2)"/>
    <path fill="#d3a034" stroke="#000" d="M223.2 482s3.2-1.7 4.8-1.6c3.7.2 8.4.6 11.3.2 4.1-.5 10.4-1.4 14-3.9-7.9-6.1-26-7.1-30 5.4z"/>
    <path d="m744.8 63.9.7.1c-2.2 6.2-4.8 11.7-4 18.6-2.8-5.6 1.4-14 3.3-18.7z" color="#000" font-family="Sans" font-weight="400" overflow="visible" style="text-indent:0;text-align:start;line-height:normal;text-transform:none;block-progression:tb;marker:none;-inkscape-font-specification:Sans" transform="rotate(71.9 212.5 -72.2)"/>
    <path fill="#d3a034" stroke="#000" d="M222.3 491.2s3-2 4.6-2.2c3.7-.1 8.4-.2 11.3-.9 4-.9 10.2-2.3 13.4-5.2-8.4-5.3-26.4-4.6-29.3 8.3z"/>
    <path d="m744.8 63.9.7.1c-2.2 6.2-4.8 11.7-4 18.6-2.8-5.6 1.4-14 3.3-18.7z" color="#000" font-family="Sans" font-weight="400" overflow="visible" style="text-indent:0;text-align:start;line-height:normal;text-transform:none;block-progression:tb;marker:none;-inkscape-font-specification:Sans" transform="rotate(66.4 175.6 -107.5)"/>
    <path fill="#d3a034" stroke="#000" d="M223 500.2s2.7-2.2 4.3-2.4c3.7-.3 8.4-.7 11.3-1.5 4-1.2 10-3 13.1-6-8.6-4.9-26.7-3.1-28.8 9.9z"/>
    <path d="m744.8 63.9.7.1c-2.2 6.2-4.8 11.7-4 18.6-2.8-5.6 1.4-14 3.3-18.7z" color="#000" font-family="Sans" font-weight="400" overflow="visible" style="text-indent:0;text-align:start;line-height:normal;text-transform:none;block-progression:tb;marker:none;-inkscape-font-specification:Sans" transform="rotate(63.2 148.8 -128)"/>
    <path fill="#d3a034" stroke="#000" d="M222.3 505s3.5-.8 4.6-2c2.6-2.6 5.9-6 8.3-7.7 3.4-2.4 8.7-6 13-6.4-1.7 9.8-14.5 22.6-26 16z"/>
    <path d="m744.8 63.9.7.1c-2.2 6.2-4.8 11.7-4 18.6-2.8-5.6 1.4-14 3.3-18.7z" color="#000" font-family="Sans" font-weight="400" overflow="visible" style="text-indent:0;text-align:start;line-height:normal;text-transform:none;block-progression:tb;marker:none;-inkscape-font-specification:Sans" transform="scale(-1 1) rotate(-66 580.2 1040.4)"/>
    <path fill="#d3a034" stroke="#000" d="M229.4 517.9s2-3 3.4-3.7c3.3-1.6 7.7-3.5 10-5.3 3.4-2.3 8.6-6 10.5-10-9.8-1.6-26.2 6-23.9 19z"/>
    <path d="m744.8 63.9.7.1c-2.2 6.2-4.8 11.7-4 18.6-2.8-5.6 1.4-14 3.3-18.7z" color="#000" font-family="Sans" font-weight="400" overflow="visible" style="text-indent:0;text-align:start;line-height:normal;text-transform:none;block-progression:tb;marker:none;-inkscape-font-specification:Sans" transform="rotate(43.7 -48 -336.6)"/>
    <path fill="#d3a034" stroke="#000" d="M233.6 527.4s1.2-3.4 2.5-4.4c3-2.2 6.7-5 8.7-7.3 2.8-3 7-7.8 8-12-10 .5-24.3 11.6-19.2 23.7z"/>
    <path d="m744.8 63.9.7.1c-2.2 6.2-4.8 11.7-4 18.6-2.8-5.6 1.4-14 3.3-18.7z" color="#000" font-family="Sans" font-weight="400" overflow="visible" style="text-indent:0;text-align:start;line-height:normal;text-transform:none;block-progression:tb;marker:none;-inkscape-font-specification:Sans" transform="rotate(31 -300.3 -608.5)"/>
    <path fill="#d3a034" stroke="#000" d="M233.1 531.5s2.8-1.1 4-4c1.6-3.8 1-6.2 2.7-8.6 2.1-3.3 5-7.6 8.6-10 .5 1.3 11.8 3.6 11.7 5-2.6 3.4-10.3 4.9-14.1 8.8-2.2 2.2-3.9 5.6-5.7 7-2.3 1.7-5.7 2.2-7.2 1.8z"/>
    <path d="M755.3 30.6h-1c.4 5.6 1 11.4-1.7 16.1 3.6-2.6 3.2-11.1 2.7-16.1z" color="#000" font-family="Sans" font-weight="400" overflow="visible" style="text-indent:0;text-align:start;line-height:normal;text-transform:none;block-progression:tb;marker:none;-inkscape-font-specification:Sans" transform="matrix(-.6 -.8 -.8 .6 733.9 1095.4)"/>
    <path fill="#d3a034" stroke="#000" d="M245 538.8s.5-3.5 1.6-4.8c2.4-2.8 5.5-6.3 7-8.9 2.1-3.5 5.3-9 5.4-13.3-9.6 2.4-21.4 16.2-14 27z"/>
    <path d="m744.8 63.9.7.1c-2.2 6.2-4.8 11.7-4 18.6-2.8-5.6 1.4-14 3.3-18.7z" color="#000" font-family="Sans" font-weight="400" overflow="visible" style="text-indent:0;text-align:start;line-height:normal;text-transform:none;block-progression:tb;marker:none;-inkscape-font-specification:Sans" transform="rotate(19.5 -812.6 -1133.5)"/>
    <path fill="#d3a034" stroke="#000" d="M251.5 549.8s-.5-3.6.2-5c1.7-3.4 3.8-7.6 4.6-10.5 1-4 2.7-10 1.8-14.3-8.7 4.9-16.6 21.2-6.6 29.8z"/>
    <path d="m744.8 63.9.7.1c-2.2 6.2-4.8 11.7-4 18.6-2.8-5.6 1.4-14 3.3-18.7z" color="#000" font-family="Sans" font-weight="400" overflow="visible" style="text-indent:0;text-align:start;line-height:normal;text-transform:none;block-progression:tb;marker:none;-inkscape-font-specification:Sans" transform="rotate(4.6 -5231.3 -5796.2)"/>
    <path fill="#d3a034" stroke="#000" d="M262 554.4s-1.6-3.3-1.4-4.8c.6-3.7 1.3-8.4 1.2-11.4-.2-4-.5-10.4-2.8-14.1-6.7 7.3-9.2 25.2 3 30.3z"/>
    <path d="m744.8 63.9.7.1c-2.2 6.2-4.8 11.7-4 18.6-2.8-5.6 1.4-14 3.3-18.7z" color="#000" font-family="Sans" font-weight="400" overflow="visible" style="text-indent:0;text-align:start;line-height:normal;text-transform:none;block-progression:tb;marker:none;-inkscape-font-specification:Sans" transform="rotate(-13.3 2493.7 2382)"/>
    <path fill="#d3a034" stroke="#000" d="M302.7 472.1s-3.3-1.2-4.9-.9c-3.6.8-8.2 1.8-11.2 1.9-4.1 0-10.5.2-14.3-1.8 6.8-7.2 24.5-11 30.4.8z"/>
    <path d="m744.8 63.9.7.1c-2.2 6.2-4.8 11.7-4 18.6-2.8-5.6 1.4-14 3.3-18.7z" color="#000" font-family="Sans" font-weight="400" overflow="visible" style="text-indent:0;text-align:start;line-height:normal;text-transform:none;block-progression:tb;marker:none;-inkscape-font-specification:Sans" transform="scale(-1 1) rotate(80.5 -5.8 -336.3)"/>
    <path fill="#d3a034" stroke="#000" d="M307.3 482s-3.2-1.7-4.8-1.6c-3.7.2-8.4.6-11.3.2-4.1-.5-10.4-1.4-14-3.9 7.9-6.1 26-7.1 30 5.4z"/>
    <path d="m744.8 63.9.7.1c-2.2 6.2-4.8 11.7-4 18.6-2.8-5.6 1.4-14 3.3-18.7z" color="#000" font-family="Sans" font-weight="400" overflow="visible" style="text-indent:0;text-align:start;line-height:normal;text-transform:none;block-progression:tb;marker:none;-inkscape-font-specification:Sans" transform="matrix(-.31 .95 .95 .31 452.5 -252)"/>
    <path fill="#d3a034" stroke="#000" d="M308.2 491.2s-3-2-4.6-2.2c-3.7-.1-8.4-.2-11.3-.9-4-.9-10.2-2.3-13.4-5.2 8.4-5.3 26.4-4.6 29.3 8.3z"/>
    <path d="m744.8 63.9.7.1c-2.2 6.2-4.8 11.7-4 18.6-2.8-5.6 1.4-14 3.3-18.7z" color="#000" font-family="Sans" font-weight="400" overflow="visible" style="text-indent:0;text-align:start;line-height:normal;text-transform:none;block-progression:tb;marker:none;-inkscape-font-specification:Sans" transform="matrix(-.4 .92 .92 .4 523.7 -225.4)"/>
    <use xlink:href="#e" width="854" height="843.9" transform="scale(1 -1) rotate(-50.8 -749.4 3)"/>
    <g id="e" stroke-dasharray="none" stroke-miterlimit="4" stroke-width="1">
      <path fill="#d3a034" stroke="#000" d="M308.2 505s-3.5-.8-4.6-2c-2.6-2.6-6-6-8.3-7.7-3.4-2.4-8.7-6-13-6.4 1.7 9.8 14.5 22.6 26 16z"/>
      <path d="m744.8 63.9.7.1c-2.2 6.2-4.8 11.7-4 18.6-2.8-5.6 1.4-14 3.3-18.7z" color="#000" font-family="Sans" font-weight="400" overflow="visible" style="text-indent:0;text-align:start;line-height:normal;text-transform:none;block-progression:tb;marker:none;-inkscape-font-specification:Sans" transform="rotate(-66 845.5 632)"/>
    </g>
    <path fill="#d3a034" stroke="#000" d="M301 517.9s-1.8-3-3.3-3.7c-3.3-1.6-7.7-3.5-10-5.3a33.7 33.7 0 0 1-10.5-10c9.8-1.6 26.2 6 23.9 19z"/>
    <path d="m744.8 63.9.7.1c-2.2 6.2-4.8 11.7-4 18.6-2.8-5.6 1.4-14 3.3-18.7z" color="#000" font-family="Sans" font-weight="400" overflow="visible" style="text-indent:0;text-align:start;line-height:normal;text-transform:none;block-progression:tb;marker:none;-inkscape-font-specification:Sans" transform="matrix(-.72 .7 .7 .72 776.3 -60)"/>
    <path fill="#d3a034" stroke="#000" d="M296.9 527.4s-1.2-3.4-2.5-4.4c-3-2.2-6.7-5-8.7-7.3-2.8-3-7-7.8-8-12 10 .5 24.3 11.6 19.2 23.7z"/>
    <path d="m744.8 63.9.7.1c-2.2 6.2-4.8 11.7-4 18.6-2.8-5.6 1.4-14 3.3-18.7z" color="#000" font-family="Sans" font-weight="400" overflow="visible" style="text-indent:0;text-align:start;line-height:normal;text-transform:none;block-progression:tb;marker:none;-inkscape-font-specification:Sans" transform="matrix(-.86 .52 .52 .86 887.2 67.7)"/>
    <path fill="#d3a034" stroke="#000" d="M297.4 531.5s-2.8-1.1-4-4c-1.6-3.8-1-6.2-2.7-8.6-2.1-3.3-5-7.6-8.6-10-.5 1.3-11.8 3.6-11.7 5 2.6 3.4 10.3 4.9 14.1 8.8 2.2 2.2 3.9 5.6 5.7 7 2.3 1.7 5.7 2.2 7.2 1.8z"/>
    <path d="M755.3 30.6h-1c.4 5.6 1 11.4-1.7 16.1 3.6-2.6 3.2-11.1 2.7-16.1z" color="#000" font-family="Sans" font-weight="400" overflow="visible" style="text-indent:0;text-align:start;line-height:normal;text-transform:none;block-progression:tb;marker:none;-inkscape-font-specification:Sans" transform="rotate(-52.7 1004.8 753.2)"/>
    <path fill="#d3a034" stroke="#000" d="M285.5 538.8s-.5-3.5-1.6-4.8c-2.4-2.8-5.5-6.3-7-8.9-2.1-3.5-5.3-9-5.4-13.3 9.6 2.4 21.4 16.2 14 27z"/>
    <path d="m744.8 63.9.7.1c-2.2 6.2-4.8 11.7-4 18.6-2.8-5.6 1.4-14 3.3-18.7z" color="#000" font-family="Sans" font-weight="400" overflow="visible" style="text-indent:0;text-align:start;line-height:normal;text-transform:none;block-progression:tb;marker:none;-inkscape-font-specification:Sans" transform="matrix(-.94 .33 .33 .94 955.8 206.3)"/>
    <path fill="#d3a034" stroke="#000" d="M279 549.8s.5-3.6-.2-5c-1.7-3.4-3.8-7.6-4.6-10.5-1-4-2.7-10-1.8-14.3 8.7 4.9 16.6 21.2 6.6 29.8z"/>
    <path d="m744.8 63.9.7.1c-2.2 6.2-4.8 11.7-4 18.6-2.8-5.6 1.4-14 3.3-18.7z" color="#000" font-family="Sans" font-weight="400" overflow="visible" style="text-indent:0;text-align:start;line-height:normal;text-transform:none;block-progression:tb;marker:none;-inkscape-font-specification:Sans" transform="matrix(-1 .08 .08 1 1012.3 401)"/>
    <path fill="#d3a034" stroke="#000" d="M268.6 554.4s1.5-3.3 1.3-4.8c-.6-3.7-1.3-8.4-1.2-11.4.2-4 .5-10.4 2.8-14.1 6.7 7.3 9.2 25.2-3 30.3z"/>
    <path d="m744.8 63.9.7.1c-2.2 6.2-4.8 11.7-4 18.6-2.8-5.6 1.4-14 3.3-18.7z" color="#000" font-family="Sans" font-weight="400" overflow="visible" style="text-indent:0;text-align:start;line-height:normal;text-transform:none;block-progression:tb;marker:none;-inkscape-font-specification:Sans" transform="matrix(-.97 -.23 -.23 .97 1012 638.4)"/>
    <path fill="#d3a034" stroke="#000" d="M260.5 558s1.7-3.1 1.6-4.7c-.3-3.7-.7-8.5-.4-11.4.4-4.1 1-10.4 3.5-14 6.3 7.7 7.8 25.8-4.7 30.1z"/>
    <path d="m744.8 63.9.7.1c-2.2 6.2-4.8 11.7-4 18.6-2.8-5.6 1.4-14 3.3-18.7z" color="#000" font-family="Sans" font-weight="400" overflow="visible" style="text-indent:0;text-align:start;line-height:normal;text-transform:none;block-progression:tb;marker:none;-inkscape-font-specification:Sans" transform="scale(-1 1) rotate(-16.7 1833 3732.8)"/>
  </g>
  <path fill="#d3a034" stroke="#000" d="M115.4 194.5s1-1.6.6-2.6c-1.4-3.1-6.3-4.2-7.2-8.5-.3-1-.2-2.2.4-3.1.4-.6 1.8-1.3 1.8-1.3-2-.3-3-1.5-3-2.8 0-2.3 2.6-3.3 5-3.9 3-.7 5.8-2.5 8.7-2.5 2.9 0 5.8 1.8 8.6 2.5 2.4.6 5.2 1.6 5.1 4 0 1.2-1 2.4-3 2.7 0 0 1.4.7 1.8 1.3.6.9.6 2 .4 3.1-1 4.3-5.8 5.4-7.2 8.5-.4 1 .6 2.6.6 2.6-3 0-4.6-.8-6.3-3-1.7 2.2-3.4 3-6.3 3z"/>
  <path fill="#1a1a1a" d="M682.6 188c-1.4 0-4.9.3-5.9 2.7 1.2-1 3.5-1.6 6-1.7 2.4 0 4.8.5 6.3 1.7-.6-2.4-5.2-2.7-6.4-2.7zm-.4 2.4c-1 0-2.6.8-2.7 1.9 1.7-1 4.3-1.3 6.4 0-.8-1.7-2-1.7-3.4-2h-.3zm-10.5 2.5c-1.5.4-1.7 2.3-1.2 4l.3-.2c-.2-.7-.3-1.6 0-2.3 0-.7.5-1.2.9-1.5zm22.1 0c.4.3.8.8 1 1.5.2.7 0 1.6-.1 2.3l.3.2c.5-1.7.3-3.6-1.2-4zm-21 1.3c-1.5.3-1.7 2.2-1.2 4l.3-.3c-.2-.6-.3-1.5-.1-2.2a3 3 0 0 1 1-1.5zm20 0c.3.3.8.7 1 1.5.1.7 0 1.6-.2 2.2l.3.3c.6-1.8.4-3.7-1.1-4zm-18.8.8c-1.5.4-1.7 2.3-1.2 4l.3-.2c-.2-.6-.3-1.6-.1-2.3a3 3 0 0 1 1-1.5zm17.6 0c.4.4.8.8 1 1.5.1.7 0 1.7-.2 2.3l.3.2c.6-1.7.4-3.5-1-4zm-16.4 1c-1.5.5-1.7 2.4-1.2 4.1l.3-.2c-.2-.6-.3-1.6 0-2.3 0-.7.5-1.2.9-1.5zm15.2 0c.3.4.8.9 1 1.6.1.7 0 1.7-.2 2.3l.3.2c.5-1.7.4-3.6-1.1-4zm-14 1c-1.6.4-1.8 2.2-1.2 4l.2-.2c-.2-.7-.2-1.6 0-2.3a3 3 0 0 1 1-1.5zm12.9 0c.3.3.7.8.9 1.5.2.7 0 1.6-.1 2.2l.3.3c.5-1.8.3-3.6-1.1-4zm-11.7 1.1c-1.5.4-1.6 2.3-1.1 4l.3-.2c-.2-.6-.3-1.6-.1-2.3.2-.7.6-1.2 1-1.5zm10.3 0c.4.3.8.8 1 1.5.1.7 0 1.7-.1 2.3l.2.2c.6-1.7.4-3.6-1-4zm-7.7.1c.4 2.8-1.3 5.2-3.4 7.4l.5.5c3-3.2 4.2-5.2 3-7.9zm5.1 0c-1.3 2.7 0 4.7 3 7.9l.4-.5c-2-2.2-3.8-4.6-3.4-7.4z" color="#000" font-family="Sans" font-weight="400" overflow="visible" style="text-indent:0;text-align:start;line-height:normal;text-transform:none;block-progression:tb;marker:none;-inkscape-font-specification:Sans" transform="translate(-561 -11.4)"/>
  <path fill="#d3a034" stroke="#1a1a1a" d="M111.3 175.6c-6.4 0-13.2-4.8-12.2-13-6.5-2.1-12.5-13-6.7-22-1.7-11.4 10.2-18.3 11.3-17.7.5-8.3 14.1-11.7 18-4.3 3.8-7.4 17.4-4 18 4.3 1-.6 13 6.3 11.3 17.7 5.8 9-.2 19.9-6.7 22 1 8.2-5.8 13-12.2 13-4.3 0-8.3-1.6-10.4-4-2 2.4-6.1 4-10.4 4z"/>
  <path fill="#1a1a1a" d="m108.8 135.5-2.6.5h-4.3a5 5 0 0 0-1 3.6c0 1.1.6 2.2 1.4 3 .8.7 2 1.3 3.3 1.5 1.7.2 3.2-1.4 4.6-.7 1.4.7 2.4.3 2-1-.2-.7-.8-1-1-1.7-.3-.5 0-1-.1-1.5-.1-.8-.1-1.6-.5-2.3-.5-.6-1.8-1.4-1.8-1.4zm25.8 0s-1.4.8-1.8 1.4c-.4.7-.4 1.5-.5 2.3 0 .5.2 1 0 1.5-.3.6-1 1-1.1 1.6-.5 1.4.6 1.8 2 1 1.4-.6 2.9 1 4.6.8 1.2-.2 2.5-.8 3.3-1.6.8-.7 1.3-1.8 1.4-2.9a5 5 0 0 0-1-3.6h-4.3l-2.6-.5z"/>
  <g color="#000">
    <path fill="#fff6d5" d="M667 146.5c-2 0-3.7 1.7-3.7 3.8 0 2 1.7 3.7 3.8 3.7 2 0 3.7-1.7 3.7-3.8 0-2-1.6-3.7-3.7-3.7zm31.3 0c-2 0-3.7 1.7-3.7 3.8 0 2 1.7 3.7 3.7 3.7a3.8 3.8 0 1 0 0-7.5z" overflow="visible" style="marker:none" transform="translate(-561 -11.4)"/>
    <path d="M667.1 148.3a2.2 2.2 0 1 0 0 4.5 2.2 2.2 0 0 0 0-4.5zm31-.1a2.2 2.2 0 1 0 0 4.5 2.2 2.2 0 0 0 0-4.5z" overflow="visible" style="marker:none" transform="translate(-561 -11.4)"/>
    <path fill="#fff" d="M666.7 149.4c-.3 0-.7.3-.7.9 0 .5.5.8.7.8.2 0 .6-.3.6-.8 0-.6-.4-.9-.6-.9zm30.9 0c-.3 0-.7.2-.7.8 0 .5.5.8.7.8.2 0 .6-.3.6-.8 0-.6-.3-.9-.6-.9z" overflow="visible" style="marker:none" transform="translate(-561 -11.4)"/>
  </g>
  <path fill="#1a1a1a" d="M119.6 118.6c-.3 1.2 1 2.4 1.9 2.4 1.4 0 2.5-1.6 2.2-2.4 0 0-1.2 1.6-2.2 1.5-.9-.2-1.3-.6-2-1.5zm-11.4 4.2c-.6 0-1.4.5-2.1 1-.6.5-1.4.5-2.2.4.6 1 1.3.8 2.5.6h.2l2.2-1.8a1 1 0 0 0-.6-.2zm26.9 0a1 1 0 0 0-.6.2l2.2 1.7.1.1h.2c1.2.2 1.9.4 2.4-.6-.7 0-1.5 0-2.2-.3-.7-.6-1.5-1-2.1-1zm-15.6 1.9.7.9.8 1.5.1 1.3v1.3a7.4 7.4 0 0 1-3.3 5.4c-1.3 0-2-.4-2.6-1 .1.7.7 1.2 1.6 1.5l-.8.3a3 3 0 0 1-2-1.6c0 .7.3 1.4 1 1.8l-1 .1a3 3 0 0 1-1.4-1.8 2 2 0 0 0 .5 1.8h-.7a3 3 0 0 1-1-2.3c-.4.6-.4 1.4 0 2.1a7 7 0 0 1-1-.4 3 3 0 0 1-.3-2.2 2 2 0 0 0-.5 1.8l-1-.8a3 3 0 0 1 .4-2c-.4.2-.7.6-.8 1.2-.3-.5-.4-1-.4-1.5l.1-.3.4-1.6c.3-1.4 2-2.5 2-2.5-1.7-.2-2.9 1.8-3 2.3l-.3 1.1c-.2.4-.4.8-.7 1-.8.5-1.5.4-2.7.2-1.1-.1-3.3-.8-4.8 0-1.3.7-2 2-2.7 3.3-.5 1.2-.8 5.1 1 6 0 0-.9-3.4.1-5.4a7.4 7.4 0 0 1 2.8-3c1.2-.6 2.5.5 3.6.6.9.2 1.8.3 2.7 0l.7.8h-.6l-1.7.4c-.7 0-1.1 0-1.7-.2a4 4 0 0 0-2.3.2c-2.7 1-2.8 4.6-2.8 5 .1 1.5.6 2.2 1 0 0-.3.1-2.5 2.1-3.3.9-.3 1.3-.2 1.8-.1.5 0 1.1.3 2 .1l1.8-.3h1.3c.5.2 1.5.7 2.2.5l.8.3c1 .2 2.1.4 3.3.4l-.1.3c-.4 1.3.2 3 1.1 3-.6-.7-.6-1.8-.2-2.5l.7-1c.4 0 .8-.1 1.1-.3 2.3-1 4-2.6 4.9-4.7a8.8 8.8 0 0 0 5.9 5l.8 1c.3.7.3 1.8-.3 2.5 1 0 1.6-1.7 1.2-3l-.1-.3a14.6 14.6 0 0 0 4-.7c.7.2 1.7-.3 2.2-.4a3 3 0 0 1 1.3 0l1.8.2c1 .2 1.6 0 2-.1.6-.1 1-.2 1.8.1 2 .8 2 3 2.1 3.3.5 2.2 1 1.5 1 0 0-.4 0-4-2.7-5a4 4 0 0 0-2.4-.2c-.5.1-1 .3-1.7.2l-1.7-.4h-.6l.8-.8c.8.3 1.8.2 2.6 0 1.2-.1 2.3-1.2 3.5-.5 1 .5 2.1 1.8 2.7 2.9 1 2 .3 5.3.3 5.3 1.9-.8 1.4-4.7.9-6a6.4 6.4 0 0 0-2.7-3.2c-1.5-.8-3.6-.1-4.7 0-1.1.2-1.9.3-2.6-.2-.4-.2-.6-.6-.7-1l-.4-1.1c0-.5-1.2-2.5-3-2.3 0 0 1.8 1.1 2 2.5l.4 1.6.2.3c0 .5-.2 1-.4 1.5-.1-.6-.4-1-.9-1.3.4.6.5 1.2.4 2l-1 1a2 2 0 0 0-.4-2 3 3 0 0 1-.4 2.3 7 7 0 0 1-1 .4c.4-.7.4-1.5.1-2.1a3 3 0 0 1-1 2.3h-.8a2 2 0 0 0 .5-1.8 3 3 0 0 1-1.4 1.8h-1c.8-.5 1.1-1.2 1-1.9a3 3 0 0 1-2 1.6l-.8-.3c1-.3 1.5-.8 1.7-1.5-.6.6-1.4 1-2.7 1a7.4 7.4 0 0 1-3.3-5.4v-1.3c0-.4 0-.9.2-1.3 0-.4.4-1 .8-1.5l.6-1c-.7 0-1.5.8-2.1 1.8-.7-1-1.5-1.7-2.2-1.7zm-6 4.8c.2.9 0 1.8-1.2 2.9.6.2 1-.2 1.4-.8a2 2 0 0 0-.1-2.1zm16.3 0a2 2 0 0 0-.2 2c.4.7.8 1 1.4.9-1.1-1.1-1.3-2-1.2-3zm-8 7.4c-1.4.2-2.6.3-3.4 2 2.1-1.3 4.8-1 6.4 0 0-1.3-2.1-2-3-2zm-6.7 4.8c-2.1.4-3 3-3.1 4.7 0 .9.2 2.2.9 3.3-1.7 0-3.3.4-4.5 1.3a7 7 0 0 0-2.6 3.6 9 9 0 0 0-4.7 2.7c-1.3 1.7-2 3.5-2.4 5l1 .4c.3-1.4 1.1-3.3 2.5-4.8 1.7-1.8 4.2-3 8-2.1-1-1-2.1-1.4-3.3-1.3.4-.9 1.1-1.8 2.1-2.5 1.3-.9 3-1.5 4.8-1.2.5.4 1 .7 1.8 1a7 7 0 0 1-2.3-5.5c.1-1.6.9-3.8 1.8-4.6zm13.2 0c1 .8 1.7 3 1.8 4.6a7 7 0 0 1-2.3 5.4 5 5 0 0 0 1.8-1c1.9-.2 3.5.4 4.8 1.3 1 .7 1.8 1.6 2.1 2.5-1.1 0-2.3.3-3.3 1.3 3.8-1 6.3.3 8 2.1 1.4 1.5 2.2 3.4 2.6 4.8l1-.3c-.4-1.6-1.2-3.4-2.5-5.1a9 9 0 0 0-4.7-2.7 7 7 0 0 0-2.6-3.6 7.5 7.5 0 0 0-4.5-1.3c.7-1.1 1-2.4 1-3.3-.1-1.7-1-4.3-3.2-4.7zm-30.8 1.6c0 1.9 2.3 3.2 3.3 3.4 1.4.2 4 0 5-1.2-1.8.2-3.2.4-4.4.1a7.2 7.2 0 0 1-3.9-2.3zm48.4 0a7.2 7.2 0 0 1-3.9 2.3c-1.2.3-2.6.1-4.3 0 .9 1.2 3.6 1.3 4.9 1 1 0 3.3-1.4 3.3-3.3zm-54.3 1.3c-.4 0-.7.1-1.1.3l-.2.7 2.1-1h-.8zm59.8 0h-.4l2 1v-.7l-1.2-.3h-.4zm-18.2.9h-.3a1 1 0 0 0-.4.2c1 .7 1.7 2 2.7 3 1 .7 2 .9 3.2 0-2-.1-3.2-2-4.2-2.9-.2-.2-.6-.3-1-.3zm-23.1 0c-.4 0-.7.2-1 .3-1 .8-2 2.8-4.1 2.9 1.2.9 2.3.7 3.2 0 1-1 1.8-2.3 2.7-3-.2-.2-.5-.3-.8-.2zm-17.4.5c-.8 0-1.7.4-2.6 1.1v.9c.9-.9 1.9-1.5 3-2h-.4zm58 0h-.4c1.1.5 2.1 1.1 3 2v-.9c-.9-.7-1.8-1.2-2.5-1.1zm-57.3 1.7c-1 0-2.2 1-3.3 2.2v.9c1.1-1.3 2.3-2.4 3.7-3h-.4zm56.6 0h-.4c1.4.7 2.6 1.8 3.6 3v-.8c-1-1.2-2.2-2.1-3.2-2.2zm-55.8 1.5c-1.2.2-2.6 1.8-3.6 3.4l.2.7c1-1.7 2.3-3.1 3.8-4h-.4zm54.6 0c1.5 1 2.8 2.4 3.8 4.1l.2-.7c-1-1.6-2.4-3.2-3.6-3.4h-.4zm-27 .1c-1.4.2-2.6.3-3.4 2 2.1-1.3 4.8-1 6.4 0 0-1.3-2.1-2.1-3-2zm-26.5 1.5c-1.4.2-3 2.2-4 3.8l.4.8c1-1.9 2.3-3.6 4-4.6h-.4zm52.4 0c1.7 1 3 2.7 4 4.6l.4-.8c-1-1.6-2.6-3.6-4-3.8h-.4zm-51.3 1.3c-1.6.3-3.2 2.8-4 4.7l.4.6c.9-2 2.2-4 4-5.3h-.4zm50.3 0c1.7 1.3 3 3.2 3.9 5.3l.4-.6c-.8-1.9-2.4-4.4-4-4.7h-.3zm-49 1.5c-1.6.3-3.3 3.1-4 5 0 .2.2.3.4.5a12 12 0 0 1 4-5.5h-.4zm47.6 0a12 12 0 0 1 4 5.5l.5-.5c-.8-2-2.7-5.1-4.5-5zm-46 1.4c-1.8.2-3.6 3.2-4.3 5l.6.6a12 12 0 0 1 4-5.6h-.4zm44.5 0a12 12 0 0 1 4 5.6l.6-.5c-.8-2-2.8-5.3-4.6-5.1zm-22.5 1c-1.4 0-5 .3-5.9 2.7 1.1-1 3.5-1.7 6-1.7 2.3-.1 4.8.4 6.3 1.7-.6-2.4-5.3-2.8-6.4-2.7zm-20.2 0c-1.8-.1-4 3.3-4.6 5.3l.5.4c.9-2.3 2.3-4.4 4.1-5.7zm41.2 0c1.8 1.3 3.2 3.4 4 5.7l.6-.4c-.7-2-2.8-5.4-4.6-5.3zm-29.8 2.6c-2.3 0-3.2 2.4-3.3 4.4a7 7 0 0 1-2.5 0c-1.3-.2-2.6-1-3.5-1.9.6 1.8 2.3 2.4 3.3 2.6 1 .2 1.9.2 2.7 0v.2c0 .5.3 1 .6 1.4a7 7 0 0 1-3.8.5c-1.6-.2-3.1-1.2-4.7-2.2a7 7 0 0 0 4.5 2.9c1.6.2 3.1 0 4.4-.6a5 5 0 0 0 1.9 1.4 8.9 8.9 0 0 1-5.3 1.2c-1.8 0-3.6-1-5.1-1.9.8 2 4 2.6 5.2 2.6 2.3.2 4.5-.5 6-1.6.7 0 1.4 0 2-.2-2.5-.4-3.9-1.9-4.3-3.7a5 5 0 0 1 1.9-5zm18.4 0a5 5 0 0 1 2 5.1c-.5 1.8-2 3.3-4.5 3.7.7.2 1.4.3 2 .2a9.4 9.4 0 0 0 6.2 1.6c1.1 0 4.3-.6 5.1-2.6-1.5 1-3.3 1.8-5.1 2-2 0-4-.4-5.3-1.3a5 5 0 0 0 1.9-1.4 8 8 0 0 0 4.4.6 7 7 0 0 0 4.5-3c-1.5 1.1-3 2-4.7 2.3a7 7 0 0 1-3.8-.5l.6-1.4v-.2c.8.2 1.7.2 2.7 0 1-.2 2.7-.8 3.3-2.6-.9.9-2.2 1.7-3.5 2-.8.1-1.7 0-2.5-.1 0-2-1-4.4-3.3-4.4zm-9.2 1.7-.5 2c-.2 1.7-.2 1.4 0 3l.5 2s.5-1.2.5-2c.3-1.6.3-1.3 0-3 0-.7-.5-2-.5-2zm-6 2c-.7 0-1.3.4-1.5 1-.5 1.6.9 2.1.9 2.1-.4-1.2.9-1.4 1.3-1.1.5.4.7 1.4.6 2.2 0 0 1.1-1 .7-2.7-.1-.7-.8-1.3-1.5-1.5h-.5zm11.7 0h-.2c-.7.2-1.4.8-1.5 1.5-.4 1.7.7 2.7.7 2.7 0-.8 0-1.8.6-2.2.4-.3 1.7 0 1.3 1.1 0 0 1.4-.5 1-2.1-.3-.7-1.2-1-1.9-1zm-26 5.5c-1.2 1-.7 2.7.5 4.2l.2-.4c-.4-.5-.8-1.3-1-2 0-.8.2-1.3.4-1.8zm40.5 0c.3.5.5 1 .3 1.8 0 .7-.5 1.5-.9 2l.2.4c1.2-1.5 1.7-3.2.4-4.2zm-39 .9c-1.2.9-.7 2.7.4 4.1l.2-.3c-.4-.5-.8-1.4-1-2.1 0-.7.2-1.3.4-1.7zm37.6 0c.2.4.4 1 .3 1.7 0 .7-.5 1.6-1 2l.3.4c1.1-1.4 1.6-3.2.4-4.1zm-36 1c-1.3 1-.8 2.8.3 4.2l.2-.3c-.4-.6-.8-1.4-1-2.1 0-.7.2-1.3.4-1.7zm34.5 0c.2.5.4 1 .3 1.8 0 .7-.5 1.5-1 2l.3.4c1.1-1.4 1.6-3.2.4-4.1zm-21.6.8c.2 1.5 2 1.9 3.9 1.5l-.2-.3c-.7.1-1.6.1-2.3-.1a3 3 0 0 1-1.4-1.1zm8.6 0a3 3 0 0 1-1.4 1c-.7.3-1.6.3-2.3.2l-.2.3c1.8.4 3.7 0 4-1.5zm-20.3 0c-1.2 1-.5 2.8.9 4l.1-.3c-.5-.4-1-1.2-1.2-2-.2-.6 0-1.2.2-1.7zm32 0c.2.5.4 1 .2 1.8-.2.7-.7 1.5-1.2 2l.1.3c1.4-1.3 2-3 1-4zm-21.8.5c-.2 1.6 1.5 2.4 3.3 2.5v-.4c-.7 0-1.6-.3-2.2-.7-.6-.4-1-1-1-1.4zm11.6 0c-.2.5-.5 1-1 1.4-.7.4-1.6.7-2.2.7l-.1.4c1.8-.1 3.5-1 3.3-2.5zm-20.4.1c-1 1.2-.2 2.8 1.2 4l.1-.3a4.8 4.8 0 0 1-1.3-2c-.2-.6-.1-1.2 0-1.7zm29.2 0c.1.5.2 1.1 0 1.8s-.8 1.5-1.3 1.9v.3c1.5-1.2 2.4-2.8 1.3-4zm-22.2.5c-.3 1.5 1.2 2.5 3 2.9v-.4c-.7-.1-1.6-.5-2.1-1-.6-.4-.8-1-1-1.5zm15.2 0c-.1.5-.3 1-.9 1.5-.5.5-1.4.9-2 1l-.1.4c1.8-.4 3.3-1.4 3-2.9zm-20.6 0c-.8 1.4.2 2.9 1.8 3.8v-.3c-.5-.4-1.2-1-1.5-1.7-.3-.7-.3-1.2-.3-1.7zm2 0c-.9 1.4.2 2.9 1.8 3.9v-.4c-.6-.4-1.2-1-1.6-1.7-.3-.6-.3-1.2-.2-1.7zm22 0c0 .6.1 1.2-.2 1.8-.4.7-1 1.3-1.6 1.7v.4c1.6-1 2.7-2.5 1.8-3.8zm2 0c0 .6 0 1.1-.3 1.8-.3.6-1 1.3-1.6 1.7l.1.3c1.6-1 2.7-2.4 1.8-3.7zm-22.3.1c-.6 1.4.7 2.8 2.4 3.4v-.3c-.6-.3-1.4-.8-1.9-1.4-.4-.6-.5-1.2-.5-1.7zm18.6 0c0 .5 0 1.1-.5 1.7-.5.6-1.3 1.1-1.9 1.4v.3c1.7-.6 3-2 2.4-3.4z"/>
</svg>
